<?xml version="1.0" encoding="utf-8"?>
<!-- Generator: Adobe Illustrator 16.0.0, SVG Export Plug-In . SVG Version: 6.00 Build 0)  -->
<!DOCTYPE svg PUBLIC "-//W3C//DTD SVG 1.1//EN" "http://www.w3.org/Graphics/SVG/1.1/DTD/svg11.dtd">
<svg version="1.1" id="Layer_1" xmlns="http://www.w3.org/2000/svg" xmlns:xlink="http://www.w3.org/1999/xlink" x="0px" y="0px"
	 width="166.174px" height="47.415px" viewBox="0 0 166.174 47.415" enable-background="new 0 0 166.174 47.415"
	 xml:space="preserve">
<path fill="#FFFFFF" d="M33.399,16.334c0.033,0,0.063-0.005,0.092-0.013c0.056-0.014,0.106-0.034,0.142-0.069
	c0.055-0.055,0.096-0.138,0.096-0.218c0-0.083-0.041-0.165-0.096-0.22c-0.054-0.056-0.137-0.096-0.233-0.096
	c-0.083,0-0.163,0.04-0.219,0.096c-0.055,0.055-0.096,0.137-0.096,0.22c0,0.08,0.041,0.163,0.096,0.218
	c0.035,0.035,0.081,0.055,0.131,0.067C33.34,16.33,33.369,16.334,33.399,16.334z M26.463,35.965c-0.082,0-0.149,0.028-0.205,0.083
	c-0.041,0.056-0.083,0.124-0.083,0.193c0,0.081,0.042,0.149,0.083,0.204c0.035,0.026,0.079,0.043,0.126,0.056
	c0.025,0.008,0.052,0.013,0.079,0.013c0.031,0,0.062-0.006,0.09-0.015c0.021-0.009,0.042-0.019,0.061-0.03
	c0.002-0.001,0.004-0.002,0.005-0.003c0.016-0.011,0.034-0.019,0.05-0.035c0.056-0.04,0.083-0.108,0.083-0.189
	c0-0.069-0.027-0.138-0.083-0.193C26.615,35.994,26.546,35.965,26.463,35.965z M35.403,30.056c-0.017-0.005-0.035-0.008-0.054-0.01
	c-0.004,0-0.092,0.004-0.119,0.013c-0.05,0.013-0.097,0.032-0.131,0.067c-0.055,0.055-0.096,0.138-0.096,0.22
	c0,0.081,0.041,0.163,0.096,0.219c0.057,0.056,0.137,0.098,0.219,0.098c0.097,0,0.179-0.042,0.234-0.098
	c0.055-0.056,0.096-0.138,0.096-0.219c0-0.082-0.041-0.165-0.096-0.22C35.513,30.087,35.46,30.069,35.403,30.056z M17.21,36.323
	c0-0.081-0.041-0.164-0.096-0.219c-0.055-0.056-0.137-0.084-0.22-0.084c-0.082,0-0.165,0.028-0.22,0.084
	c-0.055,0.055-0.096,0.138-0.096,0.219c0,0.083,0.041,0.164,0.096,0.219c0.055,0.057,0.138,0.097,0.22,0.097
	c0.083,0,0.165-0.04,0.22-0.097C17.169,36.487,17.21,36.406,17.21,36.323z M36.978,21.531h-0.014c-0.082,0-0.164,0.04-0.22,0.097
	c-0.054,0.055-0.096,0.137-0.096,0.22c0,0.081,0.042,0.163,0.096,0.218c0.056,0.056,0.138,0.098,0.22,0.098h0.014
	c0.084,0,0.164-0.042,0.22-0.098c0.056-0.055,0.095-0.137,0.095-0.218c0-0.083-0.039-0.165-0.095-0.22
	C37.142,21.571,37.062,21.544,36.978,21.531z M28.232,8.768c-0.211-0.069-0.418-0.148-0.625-0.23
	c-0.01-0.01-0.021-0.027-0.034-0.044c-0.04-0.177-0.097-0.356-0.163-0.534c-0.069-0.191-0.151-0.385-0.261-0.576
	c-0.027-0.055-0.11-0.068-0.165-0.041s-0.082,0.108-0.042,0.164c0.097,0.179,0.18,0.357,0.248,0.535
	c0.04,0.12,0.077,0.248,0.105,0.373c-0.265-0.11-0.531-0.227-0.797-0.353c-0.023-0.151-0.039-0.306-0.09-0.459
	c-0.043-0.165-0.111-0.329-0.22-0.494c-0.042-0.054-0.123-0.068-0.179-0.028c-0.055,0.042-0.055,0.124-0.027,0.179
	c0.096,0.124,0.151,0.261,0.191,0.411c0.025,0.089,0.043,0.178,0.058,0.265c-0.06-0.028-0.121-0.057-0.18-0.086
	c-0.238-0.119-0.475-0.245-0.713-0.374c0-0.08,0.013-0.134,0.013-0.201c0.028-0.138,0.056-0.26-0.055-0.438
	c-0.029-0.055-0.096-0.069-0.165-0.042c-0.055,0.042-0.068,0.11-0.039,0.166c0.066,0.108,0.039,0.177,0.025,0.273
	c-0.005,0.036-0.01,0.073-0.015,0.112c-0.401-0.223-0.805-0.457-1.218-0.702c-0.056-0.026-0.139-0.014-0.166,0.042
	c-0.041,0.055-0.013,0.137,0.041,0.163c0.375,0.229,0.745,0.447,1.112,0.654c-0.015,0.005-0.029,0.012-0.042,0.018
	c-0.124,0.069-0.232,0.124-0.411,0.124c-0.069,0-0.124,0.068-0.124,0.124c0,0.067,0.055,0.122,0.124,0.122
	c0.232-0.014,0.37-0.067,0.521-0.15c0.064-0.027,0.131-0.059,0.202-0.091c0.268,0.146,0.534,0.288,0.798,0.419
	c0.041,0.021,0.079,0.038,0.119,0.057c-0.15,0.056-0.31,0.088-0.474,0.123c-0.056,0.014-0.111,0.026-0.179,0.042
	c-0.056,0.013-0.096,0.066-0.083,0.136c0.014,0.068,0.068,0.108,0.136,0.097l0.166-0.041c0.25-0.047,0.489-0.1,0.718-0.22
	c0.212,0.099,0.426,0.196,0.64,0.287c-0.031,0.009-0.065,0.02-0.096,0.028c-0.179,0.054-0.343,0.082-0.522,0.108
	c-0.068,0.014-0.108,0.068-0.108,0.138c0.013,0.068,0.083,0.11,0.138,0.11c0.19-0.028,0.369-0.068,0.547-0.125
	c0.128-0.027,0.257-0.069,0.39-0.118c0.27,0.11,0.541,0.215,0.817,0.313c0.069,0.025,0.137-0.016,0.15-0.069
	C28.327,8.865,28.286,8.795,28.232,8.768z M8.265,30.444c-0.028-0.01-0.058-0.017-0.088-0.017c-0.033,0-0.061,0.007-0.09,0.017
	c-0.05,0.013-0.096,0.032-0.131,0.065c-0.068,0.056-0.096,0.138-0.096,0.22c0,0.083,0.027,0.165,0.096,0.22
	c0.055,0.056,0.137,0.096,0.221,0.096c0.082,0,0.164-0.04,0.219-0.096c0.067-0.055,0.096-0.137,0.096-0.22
	c0-0.082-0.028-0.164-0.096-0.22C8.359,30.476,8.313,30.457,8.265,30.444z M32.979,12.97c0.003-0.033,0.012-0.074,0.022-0.117
	c0.014-0.055,0.028-0.096,0.041-0.15c0.042-0.261,0.068-0.535,0.068-0.824c0-0.067-0.054-0.122-0.123-0.122
	s-0.122,0.055-0.122,0.122c0,0.272-0.029,0.529-0.068,0.771c-0.106-0.186-0.22-0.371-0.335-0.556
	c0.007-0.018,0.03-0.146,0.046-0.188c0.041-0.232,0.055-0.493,0.041-0.768c0-0.055-0.057-0.108-0.123-0.108
	c-0.069,0-0.125,0.067-0.11,0.123c0.013,0.225-0.01,0.449-0.045,0.643c-0.13-0.198-0.264-0.396-0.402-0.594
	c0.04-0.125,0.066-0.264,0.077-0.406c0.014-0.164,0.027-0.342,0.014-0.505c0-0.069-0.056-0.125-0.122-0.125
	c-0.069,0-0.11,0.056-0.11,0.125c0,0.163,0,0.328-0.027,0.479c-0.005,0.056-0.015,0.106-0.022,0.159
	c-0.084-0.116-0.171-0.23-0.266-0.351c-0.138-0.193-0.286-0.372-0.438-0.548c-0.042-0.057-0.123-0.057-0.179-0.016
	c-0.041,0.042-0.055,0.11-0.014,0.165c0.15,0.178,0.302,0.37,0.439,0.548c0.078,0.104,0.158,0.209,0.236,0.315
	c-0.17-0.034-0.333-0.081-0.483-0.22c-0.055-0.041-0.123-0.041-0.179,0.015c-0.041,0.041-0.041,0.123,0.014,0.164
	c0.247,0.22,0.493,0.261,0.754,0.317c0.03,0,0.069,0.005,0.108,0.015c0.153,0.222,0.303,0.444,0.445,0.67
	c-0.065-0.008-0.128-0.021-0.182-0.042c-0.139-0.027-0.249-0.084-0.372-0.123c-0.055-0.041-0.122-0.016-0.15,0.054
	c-0.042,0.055-0.015,0.138,0.055,0.166c0.122,0.054,0.261,0.108,0.398,0.151c0.13,0.022,0.263,0.043,0.402,0.041
	c0.121,0.197,0.24,0.395,0.353,0.594c-0.07-0.014-0.142-0.034-0.207-0.062c-0.15-0.039-0.304-0.109-0.439-0.19
	c-0.069-0.027-0.136-0.015-0.165,0.055c-0.04,0.055-0.013,0.123,0.042,0.165c0.163,0.081,0.315,0.15,0.479,0.204
	c0.142,0.047,0.284,0.071,0.433,0.088c0.206,0.38,0.405,0.761,0.583,1.147c0.027,0.054,0.097,0.082,0.15,0.054
	c0.068-0.028,0.096-0.096,0.068-0.165C33.385,13.748,33.19,13.358,32.979,12.97z M29.232,8.385c0.097,0,0.18-0.029,0.232-0.083
	c0.056-0.055,0.096-0.137,0.096-0.22c0-0.098-0.04-0.165-0.096-0.219c-0.053-0.055-0.136-0.096-0.232-0.096
	c-0.082,0-0.164,0.041-0.22,0.096c-0.055,0.054-0.096,0.121-0.096,0.219c0,0.083,0.041,0.165,0.096,0.22
	C29.068,8.356,29.15,8.385,29.232,8.385z M34.518,14.676c0.027,0.007,0.058,0.014,0.089,0.014s0.063-0.007,0.091-0.013
	c0.056-0.014,0.106-0.034,0.143-0.068c0.054-0.055,0.096-0.138,0.096-0.22c0-0.083-0.042-0.165-0.096-0.22
	c-0.056-0.055-0.138-0.097-0.233-0.097c-0.082,0-0.164,0.042-0.22,0.097s-0.096,0.137-0.096,0.22c0,0.082,0.04,0.165,0.096,0.22
	C34.42,14.643,34.469,14.662,34.518,14.676z M13.386,9.152c0.096,0,0.164-0.027,0.232-0.082c0.037-0.037,0.057-0.087,0.069-0.141
	C13.694,8.904,13.7,8.876,13.7,8.85c0-0.097-0.027-0.165-0.096-0.219c-0.055-0.055-0.123-0.098-0.219-0.098
	c-0.084,0-0.166,0.043-0.221,0.098c-0.054,0.054-0.096,0.122-0.096,0.219c0,0.083,0.042,0.164,0.096,0.22
	C13.22,9.125,13.302,9.152,13.386,9.152z M5.817,22.71c0.082,0,0.165-0.042,0.219-0.096L6.03,22.607
	c0.055-0.055,0.089-0.132,0.089-0.212h0.014c0-0.082-0.028-0.165-0.097-0.22c-0.033-0.035-0.08-0.055-0.129-0.067
	c-0.029-0.01-0.059-0.016-0.09-0.016s-0.059,0.006-0.088,0.016c-0.049,0.013-0.097,0.032-0.131,0.067
	c-0.068,0.055-0.097,0.138-0.097,0.22c0,0.08,0.028,0.165,0.097,0.22C5.653,22.668,5.735,22.71,5.817,22.71z M8.038,15.239
	c0.083,0,0.15-0.028,0.207-0.082c0.039-0.057,0.082-0.124,0.082-0.192c0-0.082-0.043-0.149-0.082-0.206
	c-0.057-0.041-0.124-0.081-0.207-0.081c-0.082,0-0.15,0.04-0.205,0.081c-0.055,0.057-0.082,0.124-0.082,0.206
	c0,0.068,0.027,0.136,0.082,0.192C7.888,15.21,7.956,15.239,8.038,15.239z M13.934,10.907c0.029,0,0.058-0.006,0.087-0.015
	c0.053-0.012,0.102-0.032,0.146-0.068c0.037-0.035,0.055-0.086,0.068-0.139c0.008-0.025,0.013-0.052,0.013-0.08
	c0-0.083-0.026-0.164-0.095-0.22c-0.056-0.055-0.125-0.094-0.22-0.094c-0.083,0-0.165,0.039-0.22,0.094
	c-0.055,0.056-0.096,0.137-0.096,0.22c0,0.082,0.041,0.165,0.096,0.219c0.035,0.036,0.082,0.055,0.131,0.068
	C13.873,10.9,13.902,10.907,13.934,10.907z M14.383,34.254l-0.71-1.126c-0.042-0.069-0.109-0.082-0.164-0.04
	c-0.055,0.026-0.083,0.108-0.041,0.164l0.506,0.817c-0.244-0.11-0.485-0.223-0.726-0.336c-0.094-0.171-0.212-0.354-0.329-0.523
	c-0.123-0.19-0.233-0.384-0.329-0.562c-0.04-0.055-0.11-0.082-0.164-0.055c-0.067,0.041-0.083,0.109-0.055,0.165v0.013l0.005-0.003
	c0.096,0.189,0.216,0.377,0.337,0.564c0.047,0.073,0.093,0.145,0.138,0.214c-0.254-0.124-0.504-0.254-0.757-0.383
	c-0.081-0.121-0.177-0.257-0.298-0.448c-0.109-0.149-0.207-0.314-0.303-0.437c-0.027-0.069-0.109-0.083-0.164-0.042
	c-0.055,0.042-0.068,0.108-0.041,0.164c0.109,0.151,0.205,0.302,0.301,0.453c0.014,0.022,0.031,0.049,0.045,0.071
	c-0.494-0.263-0.986-0.535-1.47-0.826c-0.056-0.026-0.138-0.013-0.165,0.042c-0.041,0.055-0.014,0.138,0.041,0.164
	c0.512,0.302,1.028,0.59,1.546,0.866c-0.045,0.005-0.089,0.007-0.134,0.012c-0.191,0.013-0.369,0.026-0.549,0.054
	c-0.069,0-0.109,0.069-0.109,0.138c0.014,0.068,0.083,0.109,0.15,0.097c0.165-0.028,0.344-0.041,0.521-0.057
	c0.16-0.012,0.33-0.024,0.492-0.047c0.245,0.128,0.492,0.254,0.737,0.376c-0.086,0.003-0.172,0.01-0.255,0.015
	c-0.249,0.014-0.494,0.027-0.714,0.055c-0.069,0-0.109,0.069-0.109,0.139c0.014,0.067,0.069,0.108,0.136,0.094
	c0.22-0.026,0.467-0.041,0.699-0.055c0.229-0.012,0.455-0.026,0.661-0.05c0.269,0.125,0.534,0.249,0.803,0.37l-0.929,0.229
	c-0.068,0.012-0.109,0.081-0.082,0.137c0.014,0.068,0.082,0.109,0.137,0.095l1.229-0.303c0.196,0.088,0.395,0.174,0.594,0.259
	c-0.311,0.126-0.891,0.208-0.931,0.208c-0.068,0.016-0.11,0.084-0.096,0.151c0,0.056,0.068,0.11,0.136,0.097
	c0.029,0,0.751-0.11,1.199-0.324c0.148,0.062,0.297,0.125,0.447,0.188c0.055,0.026,0.123,0,0.15-0.068s0-0.139-0.068-0.165
	C15.261,34.635,14.82,34.446,14.383,34.254z M37.992,22.284c0-0.08-0.096-0.137-0.165-0.108c-0.596,0.279-1.114,0.606-1.56,0.973
	c-0.039-0.373-0.101-0.749-0.2-1.121c0.879-1.205,1.266-2.503,1.199-3.882c-0.069-1.413-0.576-2.893-1.509-4.455
	c-0.055-0.083-0.179-0.083-0.219,0.013l-0.851,1.976c-0.074,0.2-0.134,0.401-0.188,0.599c-0.169-0.432-0.441-1.167-0.441-1.34
	c0-0.082,0.013-0.164,0.013-0.247c0.014-0.657,0.014-1.192-0.287-2.728l-0.014-0.015c-0.425-1.246-1.674-2.289-2.715-2.934
	c-0.192-0.138-0.385-0.246-0.562-0.342c-0.178-0.096-0.342-0.179-0.466-0.233c-0.083-0.041-0.179,0.014-0.179,0.095
	c-0.023,0.366-0.007,0.714,0.034,1.045c-0.045-0.03-0.087-0.059-0.131-0.085c-0.091-0.068-0.187-0.146-0.325-0.234
	c-0.002-0.002-0.003-0.004-0.005-0.004c-0.021-0.013-0.487-0.432-0.725-0.693c-0.202-0.237-0.395-0.484-0.504-0.708
	c-0.022-0.046-0.037-0.1-0.063-0.139l0.003-0.003c-0.007-0.007-0.014-0.014-0.02-0.021c0-0.001-0.002-0.001-0.002-0.002
	c0,0-0.001,0-0.001-0.001c-0.293-0.306-0.576-0.587-0.963-0.854c-0.398-0.274-0.879-0.508-1.536-0.713c0,0-0.739-0.15-1.522-0.206
	c-0.685-0.053-1.37-0.11-1.945-0.329l-0.002,0.002c-0.018-0.007-0.035-0.011-0.046-0.011c-0.066,0.015-0.097,0.029-0.108,0.06
	s-0.021,0.028-0.009,0.086c0.075,0.433,0.246,0.808,0.482,1.154C22,7.115,21.599,7.372,21.254,7.63
	c-0.384,0.301-0.686,0.604-0.945,0.932c-0.055,0.069-0.014,0.178,0.081,0.191c0.658,0.123,1.304,0.18,1.961,0.151
	c0.624-0.026,1.25-0.114,1.919-0.253c0.024,0.017,0.356,0.225,0.508,0.308c0.737,0.39,1.563,0.594,2.424,0.592v0.002
	c0,0,0.77-0.046,1.07-0.072c0.303-0.028,0.91-0.071,0.918-0.073c0.016,0.006,0.611,0.411,0.742,0.488
	c0.25,1.413,0.972,2.473,1.466,3.053c0.125,0.151,0.234,0.26,0.316,0.343c0.082,0.082,0.137,0.137,0.164,0.151
	c0.315,0.247,0.631,0.534,0.959,0.879c0.327,0.337,0.638,0.729,0.976,1.136l-0.001,0.001c0.096,0.191,0.19,0.396,0.288,0.615
	c0.105,0.218,0.202,0.434,0.296,0.609c-0.064,0.298-0.113,0.588-0.145,0.873c-0.055,0.469-0.064,0.931-0.043,1.377
	c-0.117-0.133-0.236-0.267-0.355-0.403c-0.261-0.289-0.536-0.591-0.781-0.894c-0.069-0.067-0.179-0.053-0.22,0.028
	c-0.425,1.234-0.506,2.303-0.343,3.236c0.165,0.932,0.59,1.74,1.166,2.427c0,0,0.452,0.385,0.685,0.576
	c0.231,0.19,0.474,0.386,0.706,0.589c-0.177,0.274-0.33,0.562-0.459,0.864c-0.11,0.246-0.206,0.521-0.287,0.793
	c-0.043,0.168-0.079,0.334-0.114,0.502c-0.073-0.155-0.158-0.308-0.258-0.46c-0.163-0.288-0.369-0.549-0.616-0.822
	c-0.055-0.068-0.178-0.041-0.205,0.04c-0.179,0.618-0.398,1.193-0.658,1.742c-0.041,0.109-0.096,0.205-0.151,0.315
	c-0.039,0.093-0.15,0.288-0.15,0.288c-0.493,0.7-0.822,1.369-1.04,1.986c-0.221,0.631-0.303,1.233-0.29,1.794
	c-0.074,0.028-0.146,0.056-0.219,0.085c-1.205,0.506-2.166,1.261-2.907,2.276c-0.261,0.411-0.535,0.74-0.877,0.973
	c-0.288,0.179-0.616,0.299-0.999,0.354c0.722-0.789,1.213-1.771,1.547-2.849c0.029-0.095-0.066-0.192-0.163-0.15
	c-0.315,0.138-0.632,0.233-0.96,0.315c-0.343,0.067-0.671,0.109-1.028,0.137h-0.013l0.019,0.083l0.002,0.033l-0.021-0.116
	c-0.81,0.123-1.592,0.344-2.277,0.699c-0.379,0.196-0.731,0.438-1.055,0.729c-0.25-0.271-0.631-0.488-1.125-0.661
	c-0.535-0.191-2.001-0.411-2.001-0.411c-0.425-0.027-0.85-0.069-1.274-0.138c-0.425-0.054-0.851-0.136-1.276-0.246
	c-0.096-0.014-0.178,0.082-0.137,0.178c0.398,0.809,1.029,1.426,1.782,1.946c0.278,0.188,0.575,0.36,0.884,0.524
	c-0.084-0.024-0.167-0.047-0.253-0.071c-0.694-0.204-1.387-0.435-2.067-0.68c-1.226-1.113-2.465-1.956-3.731-2.473
	c-0.091-0.039-0.184-0.07-0.274-0.106c0.01-0.559-0.045-1.118-0.191-1.703c-0.165-0.604-0.438-1.235-0.877-1.878
	c0,0-0.509-0.659-0.74-1.029c-0.233-0.384-0.453-0.795-0.63-1.262C9.931,26.014,9.794,26,9.753,26.083
	c-0.208,0.366-0.355,0.758-0.445,1.182c-0.324-0.838-0.802-1.624-1.433-2.349c1.067-0.992,1.813-2.066,2.192-3.193
	c0.398-1.152,0.425-2.373,0.082-3.66c-0.014-0.083-0.109-0.111-0.164-0.083c-0.302,0.137-0.576,0.329-0.836,0.562
	c-0.193,0.172-0.379,0.376-0.55,0.604c-0.021-0.289-0.057-0.579-0.095-0.876c-0.027-0.192-0.068-0.563-0.068-0.563
	c-0.061-0.234-0.121-0.452-0.179-0.657c0.12-0.164,0.185-0.29,0.233-0.413c0.055-0.123,0.25-0.454,0.254-0.472
	c1.081-0.686,2.078-1.696,2.803-2.804c0.139-0.22,0.274-0.439,0.398-0.658c0.123-0.233,0.232-0.452,0.329-0.672
	c0,0,0.361-1.186,0.444-1.684c0.186-0.104,0.371-0.197,0.556-0.276c0.19-0.097,0.395-0.19,0.598-0.312
	c0.296,0.02,0.569,0.009,0.856-0.004c0.287-0.014,0.562-0.028,0.863-0.014c0.644,0.026,1.26-0.028,1.836-0.192
	c0.576-0.151,1.111-0.411,1.604-0.822c0.48-0.425,0.864-0.851,1.152-1.289c0.274-0.453,0.454-0.932,0.494-1.48
	c0.013-0.083-0.083-0.151-0.165-0.123c-0.754,0.302-1.563,0.48-2.372,0.657c-0.273,0.056-0.563,0.125-0.85,0.193v0.002
	c-0.979,0.193-1.689,0.589-2.248,1.094c-0.555,0.515-0.963,1.122-1.314,1.783c-0.184,0.103-0.368,0.196-0.564,0.286
	c-0.129,0.057-0.263,0.12-0.396,0.188c0.02-0.131,0.037-0.262,0.055-0.392c0.027-0.221,0.068-0.468,0.096-0.687
	c0.027-0.095-0.082-0.164-0.164-0.122c-0.919,0.396-1.439,0.835-2.057,1.356c-0.178,0.15-0.619,0.52-0.619,0.52l0.002,0.002
	c-1.52,1.451-1.549,3.554-1.563,5.044v0.337c-0.141,0.177-0.196,0.317-0.26,0.444c-0.023,0.068-0.052,0.134-0.092,0.207
	c-0.074-0.242-0.149-0.469-0.225-0.686c-0.178-0.467-0.356-0.893-0.589-1.345c-0.041-0.083-0.165-0.096-0.206-0.013
	c-0.493,0.794-0.727,1.454-0.987,2.207c-0.096,0.245-0.3,0.809-0.3,0.809c-0.55,2.083,0.383,4.086,1.027,5.469
	c0.031,0.09,0.073,0.174,0.096,0.22v0.357c0,0.064,0,0.122-0.007,0.248c-0.142-0.124-0.284-0.245-0.433-0.358
	c-0.233-0.179-0.479-0.356-0.74-0.535c-0.082-0.054-0.179,0-0.191,0.098c-0.069,1.398,0.055,2.631,0.396,3.659
	c0.357,1.028,0.947,1.852,1.797,2.44c0.672,0.466,1.234,0.987,1.686,1.563c0.082,0.123,0.164,0.232,0.247,0.356
	c0.015,0.021,0.03,0.047,0.046,0.07c0.014,0.038,0.025,0.078,0.039,0.117c-0.363-0.014-0.729-0.006-1.1,0.031
	c-0.096,0-0.15,0.123-0.082,0.206c0.314,0.328,0.616,0.699,0.932,1.109c0.316,0.412,0.934,1.316,0.934,1.316
	c0.712,0.836,1.563,1.316,2.508,1.535c0.937,0.203,1.966,0.165,3.051-0.021l3.423,0.932c-0.683,0.368-1.505,0.655-2.456,0.873
	c-0.042,0.013-0.083,0.082-0.083,0.123c0,0.096,0,0.204,0.041,0.302c0.026,0.107,0.096,0.219,0.206,0.327
	c0.014,0.016,0.083,0.043,0.096,0.043c0.452-0.083,0.891-0.179,1.33-0.316c0.453-0.122,1.357-0.492,1.357-0.492
	c0.245-0.139,0.604-0.151,1.041-0.166c0.22-0.013,0.453-0.026,0.727-0.053c0.198-0.022,0.387-0.052,0.571-0.085
	c0.015,0.014,1.321,0.426,1.979,0.563c0.645,0.15,1.303,0.245,1.988,0.274c0.028,0,0.081-0.029,0.096-0.056
	c0.109-0.149,0.165-0.314,0.178-0.465c0.014-0.165-0.013-0.316-0.096-0.481c-0.013-0.026-0.067-0.054-0.097-0.066
	c-0.397-0.043-0.81-0.085-1.219-0.153c-0.345-0.055-0.679-0.127-1.012-0.213c0.477-0.236,0.898-0.525,1.272-0.855
	c0.206-0.002,0.378-0.014,0.548-0.027c0.186-0.014,0.371-0.027,0.557-0.04c1.107,0.204,2.146,0.218,3.104-0.015
	c0.96-0.234,1.836-0.698,2.632-1.427c0.753-0.697,1.329-1.302,1.727-1.822c0.411-0.521,0.644-0.944,0.754-1.302
	c0.015-0.082-0.055-0.165-0.15-0.151c-0.227,0.049-0.452,0.084-0.677,0.118c0.179-0.289,0.331-0.596,0.447-0.915
	c0.589-0.233,1.163-0.507,1.724-1.123c0.548-0.602,1.53-2.85,1.617-3.125c0.088-0.275,0.26-1.7,0.302-2.576
	c0.014-0.179,0.014-0.344,0.014-0.508C38.006,22.573,38.006,22.422,37.992,22.284z M22.337,8.659
	c-0.562,0.022-1.123-0.021-1.696-0.118c0.217-0.247,0.462-0.483,0.764-0.718c0.34-0.252,0.741-0.504,1.206-0.743
	c0.019,0.022,0.31,0.363,0.45,0.512c-0.537,0.128-1.519,0.505-1.519,0.505c-0.068,0.027-0.096,0.096-0.068,0.165
	c0.014,0.056,0.097,0.096,0.149,0.068c0,0,1.245-0.481,1.644-0.53c0.195,0.192,0.713,0.637,0.744,0.663
	C23.438,8.575,22.882,8.647,22.337,8.659z M28.259,9.233c-0.315,0.028-0.63,0.055-0.903,0.069c-0.893,0.028-1.714-0.164-2.454-0.563
	C24.749,8.672,23.438,7.867,22.844,7c-0.018-0.022-0.067-0.079-0.156-0.214c-0.088-0.137-0.3-0.366-0.426-0.908
	c0.563,0.177,1.183,0.236,1.802,0.285c0.508,0.042,0.958,0.045,1.48,0.191c0.523,0.146,1.098,0.426,1.468,0.686
	c0.361,0.242,0.645,0.522,0.927,0.817c0.102,0.269,0.327,0.589,0.581,0.869c0.149,0.166,0.31,0.324,0.447,0.454
	C28.727,9.203,28.488,9.222,28.259,9.233z M33.016,14.156c-0.325-0.341-0.986-0.904-0.986-0.904
	c-0.016-0.015-0.329-0.314-0.452-0.453c-0.585-0.704-1.539-2.142-1.486-4.061c0.089,0.047,0.186,0.095,0.293,0.153
	c0.165,0.083,0.356,0.191,0.549,0.315c0.996,0.627,2.195,1.637,2.611,2.809l-0.007,0.002c0.315,1.507,0.302,2.028,0.287,2.673v0.247
	c0,0.044,0.015,0.116,0.035,0.203C33.579,14.783,33.298,14.449,33.016,14.156z M15.194,7.959c0.535-0.48,1.221-0.851,2.152-1.043
	c0.287-0.068,0.563-0.123,0.85-0.191c0.755-0.164,1.496-0.327,2.216-0.586c-0.069,0.416-0.209,0.806-0.433,1.161
	c-0.274,0.425-0.646,0.837-1.11,1.248c-0.452,0.37-0.96,0.617-1.509,0.768c-0.549,0.151-1.137,0.206-1.756,0.191
	c-0.313-0.026-0.602-0.014-0.89,0c-0.227,0.012-0.454,0.022-0.688,0.013C14.354,8.939,14.713,8.404,15.194,7.959z M8.765,15.759
	c0.014-1.467,0.027-3.537,1.535-4.921c0.207-0.165,0.385-0.316,0.563-0.453c0.556-0.479,1.033-0.878,1.789-1.236
	c-0.023,0.165-0.043,0.318-0.062,0.471c-0.096,0.698-0.192,1.383-0.548,2.315c-0.083,0.22-0.193,0.424-0.315,0.644
	c-0.109,0.22-0.247,0.438-0.384,0.646c-0.677,1.026-1.586,1.975-2.578,2.63C8.765,15.825,8.765,15.791,8.765,15.759z M17.991,34.568
	c-0.653-0.444-1.207-0.968-1.58-1.629c0.348,0.081,0.692,0.148,1.046,0.205c0.421,0.065,0.841,0.106,1.274,0.134v0.001
	c0.768,0.083,1.427,0.206,1.947,0.385c0.459,0.161,0.805,0.368,1.029,0.609c-0.179,0.179-0.345,0.374-0.5,0.59
	c-0.247-0.107-0.496-0.211-0.745-0.31c-0.088-0.175-0.232-0.364-0.401-0.533c-0.027-0.04-0.203-0.238-0.23-0.238
	c-0.053-0.034-0.115-0.021-0.168,0.019c-0.036,0.048-0.027,0.116,0.002,0.159l-0.001,0.003c0.001,0,0.347,0.359,0.401,0.429
	c-0.201-0.079-0.402-0.161-0.605-0.243c-0.145-0.301-0.317-0.523-0.482-0.648c-0.041-0.027-0.081-0.056-0.124-0.068
	c-0.04-0.028-0.081-0.042-0.122-0.042c-0.068-0.014-0.124,0.042-0.137,0.11c-0.014,0.056,0.137,0.136,0.164,0.149
	c0.027,0.015,0.253,0.216,0.344,0.354c-0.506-0.209-1.023-0.421-1.578-0.642c-0.067-0.028-0.137,0-0.164,0.069
	c-0.027,0.054,0.014,0.137,0.068,0.149c0.5,0.209,1.035,0.427,1.586,0.649c-0.034,0.003-0.069,0.006-0.105,0.01
	c-0.15,0.013-0.314,0-0.492-0.016c-0.07,0-0.124,0.042-0.124,0.111c-0.014,0.067,0.041,0.124,0.108,0.137
	c0.18,0.014,0.357,0.014,0.521,0.014c0.175-0.014,0.35-0.042,0.498-0.094c0.223,0.09,0.447,0.18,0.673,0.269
	c-0.081,0.028-0.165,0.052-0.252,0.072c-0.179,0.028-0.37,0.055-0.548,0.068c-0.068,0-0.123,0.056-0.11,0.123
	c0,0.068,0.056,0.124,0.122,0.124c0.193-0.014,0.399-0.042,0.591-0.083c0.179-0.038,0.343-0.101,0.508-0.174
	c0.225,0.094,0.451,0.185,0.676,0.275c-0.146,0.262-0.332,0.503-0.556,0.723c-0.113-0.03-0.227-0.061-0.34-0.09
	C19.389,35.376,18.642,35.014,17.991,34.568z M8.614,19.542c0.004-0.005,0.01-0.008,0.014-0.013c0.206-0.33,0.438-0.589,0.672-0.81
	c0.207-0.184,0.425-0.328,0.652-0.451c0.287,1.189,0.25,2.306-0.104,3.371c-0.381,1.1-1.098,2.132-2.137,3.097
	c-0.069-0.076-0.143-0.152-0.215-0.228c0.188-0.306,0.373-0.632,0.553-0.976c0.002-0.001,0.002-0.001,0.004-0.001
	c0.148-0.096,0.148-0.096,0.163-0.096c0.179-0.124,0.37-0.233,0.548-0.343c0.056-0.041,0.069-0.11,0.043-0.166
	c-0.043-0.053-0.111-0.081-0.166-0.04c-0.137,0.083-0.26,0.157-0.38,0.23c0.124-0.249,0.244-0.506,0.362-0.772
	c0.121-0.094,0.239-0.173,0.347-0.24c0.124-0.055,0.233-0.109,0.343-0.135c0.068-0.016,0.111-0.085,0.096-0.139
	c-0.014-0.068-0.082-0.109-0.151-0.097c-0.137,0.042-0.26,0.083-0.396,0.166c-0.021,0.009-0.041,0.023-0.063,0.035
	c0.08-0.188,0.156-0.383,0.234-0.581c0.001-0.002,0.004-0.002,0.006-0.004c0.066-0.081,0.15-0.15,0.26-0.232
	c0.125-0.068,0.246-0.138,0.398-0.205c0.068-0.028,0.082-0.109,0.055-0.165c-0.028-0.067-0.098-0.083-0.152-0.055
	c-0.156,0.065-0.287,0.142-0.406,0.222c0.066-0.195,0.129-0.393,0.189-0.584c0.01-0.006,0.019-0.011,0.025-0.022
	c0.068-0.082,0.137-0.163,0.207-0.219c0.082-0.07,0.15-0.124,0.244-0.178c0.056-0.027,0.07-0.097,0.043-0.164
	c-0.027-0.056-0.096-0.069-0.165-0.042c-0.067,0.038-0.132,0.085-0.195,0.132c0.039-0.126,0.075-0.255,0.112-0.379
	c0.016-0.067-0.026-0.136-0.095-0.15c-0.056-0.027-0.124,0.015-0.151,0.083c-0.068,0.287-0.151,0.561-0.232,0.821
	c-0.096,0.274-0.179,0.535-0.275,0.796c-0.471,1.291-1.021,2.397-1.586,3.32c-0.033-0.032-0.064-0.066-0.1-0.099
	c-0.01-0.01,0-0.604,0.014-0.833c0.201-0.339,0.389-0.768,0.576-1.195c0.121-0.285,0.385-0.837,0.385-0.837
	C8.519,20.731,8.616,20.138,8.614,19.542z M6.089,17.787l0.003,0.002c0.11-0.273,0.206-0.55,0.288-0.796
	c0.238-0.675,0.454-1.271,0.855-1.965c0.184,0.368,0.334,0.732,0.475,1.115c0.164,0.466,0.328,0.987,0.492,1.617h0.002
	c0.015,0.187,0.041,0.361,0.068,0.536c0.123,1.014,0.232,1.946-0.289,2.946c0,0-0.273,0.576-0.397,0.863
	c-0.157,0.358-0.313,0.703-0.47,0.999C7.114,23.096,5.562,19.784,6.089,17.787z M7.942,29.112c-0.809-0.549-1.357-1.329-1.699-2.317
	c-0.312-0.945-0.437-2.063-0.391-3.342c0.186,0.13,0.365,0.261,0.541,0.395c0.233,0.18,0.453,0.371,0.658,0.55
	c1.041,0.986,1.756,2.082,2.152,3.29c0.004,0.021,0.015,0.039,0.029,0.053c-0.026,0.242-0.037,0.493-0.029,0.755
	c0.02,0.644,0.145,1.343,0.356,2.097C9.116,30.048,8.583,29.551,7.942,29.112z M9.45,28.481c-0.023-0.765,0.104-1.444,0.391-2.049
	c0.167,0.382,0.352,0.73,0.556,1.048c0.233,0.383,0.493,0.728,0.754,1.043c0.411,0.617,0.672,1.219,0.837,1.795
	c0.139,0.544,0.182,1.052,0.178,1.558c-0.223-0.077-0.447-0.142-0.672-0.2c-0.041-0.087-0.076-0.176-0.115-0.264
	c0.052-0.101-0.008,0.03,0.006,0.004c0.137-0.329,0.273-0.673,0.397-0.974c0.027-0.068-0.015-0.137-0.069-0.165
	c-0.068-0.013-0.137,0.013-0.164,0.069c-0.104,0.271-0.2,0.516-0.301,0.756c-0.097-0.236-0.188-0.478-0.276-0.718
	c0.056-0.118,0.11-0.231,0.167-0.354c0.081-0.165,0.15-0.343,0.219-0.493c0.027-0.057,0-0.137-0.056-0.152
	c-0.067-0.025-0.137,0-0.163,0.055c-0.069,0.165-0.15,0.33-0.22,0.493c-0.021,0.046-0.04,0.087-0.06,0.13
	c-0.027-0.074-0.053-0.149-0.077-0.226c-0.044-0.131-0.085-0.262-0.126-0.392c0.014-0.014,0.024-0.03,0.029-0.045
	c0.014-0.111,0.041-0.221,0.082-0.345c0.056-0.108,0.11-0.219,0.191-0.327C11,28.686,11,28.605,10.944,28.563
	c-0.055-0.04-0.122-0.04-0.163,0.014c-0.11,0.124-0.179,0.261-0.233,0.398c-0.008,0.016-0.012,0.033-0.017,0.05
	c-0.103-0.353-0.194-0.702-0.272-1.051c-0.014-0.068-0.082-0.111-0.136-0.082c-0.069,0.014-0.11,0.067-0.097,0.136
	c0.082,0.376,0.179,0.75,0.286,1.121c-0.14-0.075-0.288-0.172-0.437-0.297c-0.055-0.042-0.123-0.027-0.164,0.028
	c-0.057,0.04-0.041,0.123,0.013,0.164c0.179,0.149,0.384,0.287,0.575,0.369c0.039,0.014,0.074,0.025,0.103,0.038
	c0.046,0.151,0.095,0.304,0.146,0.456c0.032,0.097,0.066,0.194,0.1,0.293c-0.053-0.027-0.104-0.052-0.155-0.074
	c-0.151-0.082-0.288-0.15-0.438-0.206c-0.068-0.027-0.138,0-0.164,0.056c-0.014,0.068,0.014,0.138,0.068,0.164
	c0.15,0.055,0.287,0.124,0.426,0.191c0.115,0.065,0.234,0.129,0.373,0.183c0.133,0.365,0.279,0.728,0.441,1.087
	c-0.348-0.074-0.697-0.127-1.049-0.155c-0.047-0.086-0.098-0.171-0.15-0.257C9.663,30.181,9.476,29.285,9.45,28.481z M16.058,35.35
	c-1.068,0.205-2.084,0.246-2.988,0.026c-0.898-0.204-1.703-0.654-2.373-1.439h0.002c-0.314-0.452-0.617-0.904-0.932-1.314
	c-0.263-0.342-0.523-0.662-0.783-0.949c1.24-0.076,2.436,0.131,3.606,0.618c1.248,0.522,2.481,1.344,3.688,2.455
	c0.014,0,1.44,0.506,2.14,0.713c0.546,0.161,1.092,0.311,1.64,0.454c0.074,0.032,0.15,0.063,0.226,0.093
	c-0.154,0.127-0.319,0.246-0.498,0.357L16.058,35.35z M25.106,36.939c0.376,0.066,0.775,0.117,1.165,0.158
	c0.044,0.099,0.055,0.191,0.055,0.281c-0.011,0.102-0.052,0.191-0.103,0.299c-0.636-0.031-1.26-0.124-1.885-0.258
	c-0.529-0.114-1.059-0.261-1.588-0.425c0.381-0.093,0.735-0.209,1.066-0.35c0.015,0.019,0.033,0.037,0.056,0.049
	C24.285,36.79,24.695,36.872,25.106,36.939z M25.325,35.376c-0.864,0.823-2.043,1.385-3.606,1.563
	c-0.245,0.028-0.493,0.028-0.712,0.042c-0.466,0.014-0.837,0.041-1.151,0.206l0.003,0.004c-0.435,0.177-0.87,0.339-1.305,0.462
	c-0.404,0.117-0.818,0.219-1.236,0.289c-0.047-0.064-0.084-0.125-0.094-0.179c-0.016-0.049-0.026-0.093-0.032-0.136
	c1.011-0.245,1.88-0.564,2.582-0.975c0.689-0.404,1.215-0.906,1.548-1.52c0.034-0.01,0.062-0.034,0.069-0.072
	c0.009-0.017,0.01-0.038,0.008-0.058c0.46-0.621,1.023-1.088,1.665-1.423c0.657-0.343,1.397-0.548,2.193-0.67l-0.001-0.002
	c0.366-0.015,0.704-0.056,1.042-0.137c0.27-0.062,0.521-0.145,0.77-0.237C26.696,33.642,26.143,34.623,25.325,35.376z
	 M34.483,17.583c0.067-0.591,0.205-1.193,0.437-1.824l0.74-1.734c0.839,1.444,1.307,2.827,1.358,4.12
	c0.065,1.279-0.272,2.473-1.036,3.592c-0.034-0.109-0.072-0.22-0.114-0.329c-0.247-0.655-0.63-1.312-1.216-1.955l0.009-0.005
	c-0.06-0.068-0.121-0.139-0.183-0.207C34.415,18.707,34.417,18.157,34.483,17.583z M34.51,23.712
	c-0.216-0.177-0.433-0.354-0.648-0.543c-0.561-0.656-0.956-1.422-1.119-2.312c-0.142-0.851-0.074-1.813,0.276-2.906
	c0.209,0.248,0.43,0.494,0.656,0.742c0.197,0.217,0.387,0.433,0.575,0.65c0.01,0.021,0.025,0.039,0.044,0.051
	c0.057,0.067,0.117,0.135,0.176,0.202v0.015c0.561,0.616,0.932,1.246,1.179,1.893c0.224,0.605,0.344,1.225,0.391,1.844
	c-0.121,0.108-0.234,0.222-0.342,0.338c-0.191-0.303-0.375-0.606-0.552-0.911c0.068-0.18,0.123-0.476,0.146-0.834
	c0-0.094,0.026-0.52,0.026-0.533c0-0.068-0.054-0.124-0.123-0.124c-0.067,0-0.122,0.056-0.122,0.124c0,0-0.014,0.439-0.028,0.508
	c-0.016,0.218-0.04,0.408-0.071,0.559c-0.153-0.272-0.52-0.963-0.556-1.032c0.044-0.119,0.084-0.287,0.106-0.486
	c0.04-0.233,0.068-0.508,0.082-0.769c0-0.054-0.042-0.122-0.11-0.122c-0.069,0-0.123,0.041-0.137,0.108
	c-0.013,0.261-0.04,0.521-0.068,0.754c-0.015,0.065-0.023,0.126-0.037,0.183c-0.263-0.545-0.504-1.094-0.731-1.649
	c-0.026-0.067-0.096-0.096-0.163-0.067c-0.056,0.026-0.083,0.096-0.056,0.149c0.232,0.58,0.48,1.149,0.758,1.714
	c-0.086-0.036-0.173-0.081-0.265-0.137c-0.164-0.096-0.342-0.233-0.521-0.37c-0.055-0.041-0.123-0.041-0.165,0.013
	c-0.04,0.056-0.04,0.124,0.015,0.165c0.178,0.15,0.37,0.288,0.549,0.412c0.181,0.103,0.36,0.181,0.542,0.225
	c0.035,0.066,0.369,0.714,0.509,0.966c-0.101-0.048-0.71-0.383-0.914-0.533c-0.056-0.025-0.124-0.013-0.164,0.042
	c-0.042,0.054-0.029,0.124,0.027,0.165c0.22,0.15,1.04,0.596,1.252,0.688c0.19,0.327,0.391,0.654,0.603,0.981
	c-0.113,0.132-0.221,0.269-0.321,0.409C34.982,24.094,34.746,23.897,34.51,23.712z M34.42,31.125
	c-0.11,0.292-0.323,0.641-0.636,1.045c-0.398,0.493-0.947,1.083-1.701,1.783c-0.754,0.698-1.603,1.15-2.522,1.368
	c-0.932,0.221-1.932,0.207-3.015,0c0,0,0.26-0.146,0.411-0.246c0.384-0.26,0.686-0.615,0.958-1.042l-0.007-0.005
	c0.711-0.971,1.644-1.696,2.805-2.173c0.22-0.098,0.452-0.18,0.699-0.263c0.233-0.065,0.492-0.136,0.754-0.191
	C32.166,31.401,33.745,31.25,34.42,31.125z M33.605,30.977c-0.008,0.011-0.014,0.024-0.019,0.037
	c-0.346,0.043-0.691,0.077-1.033,0.103c0.047-0.105,0.093-0.211,0.134-0.319c0.068-0.177,0.219-0.592,0.226-0.614
	c0.143-0.052,0.292-0.146,0.433-0.263c0.165-0.137,0.329-0.302,0.493-0.48c0.04-0.039,0.04-0.122-0.015-0.164
	c-0.04-0.056-0.122-0.04-0.164,0c-0.149,0.18-0.314,0.329-0.467,0.453c-0.061,0.056-0.122,0.101-0.184,0.139
	c0.087-0.304,0.16-0.615,0.222-0.933c0.087-0.045,0.189-0.113,0.291-0.194c0.125-0.109,0.248-0.231,0.385-0.383
	c0.04-0.055,0.04-0.123-0.013-0.179c-0.042-0.041-0.124-0.041-0.166,0.015c-0.137,0.138-0.262,0.262-0.369,0.356
	c-0.023,0.021-0.046,0.042-0.066,0.06c0.08-0.47,0.138-0.953,0.174-1.444c0-0.068-0.04-0.123-0.107-0.123
	c-0.069-0.015-0.123,0.041-0.138,0.109c-0.033,0.493-0.089,0.979-0.172,1.453c-0.035-0.038-0.068-0.078-0.103-0.124
	c-0.068-0.123-0.137-0.261-0.205-0.41c-0.015-0.069-0.083-0.097-0.151-0.083c-0.068,0.028-0.096,0.096-0.068,0.164
	c0.068,0.18,0.137,0.329,0.233,0.467c0.066,0.11,0.151,0.199,0.24,0.274c-0.063,0.317-0.138,0.63-0.226,0.934
	c-0.028-0.042-0.058-0.086-0.083-0.139c-0.083-0.15-0.165-0.343-0.261-0.604c-0.028-0.056-0.097-0.096-0.164-0.068
	c-0.056,0.028-0.097,0.096-0.069,0.15c0.096,0.273,0.192,0.467,0.274,0.631c0.07,0.14,0.141,0.239,0.211,0.326
	c-0.007,0.019-0.224,0.622-0.231,0.636c-0.102-0.137-0.197-0.279-0.281-0.413c-0.013-0.041-0.083-0.178-0.096-0.22
	c-0.027-0.055-0.097-0.082-0.151-0.068c-0.068,0.026-0.096,0.096-0.068,0.164c0.015,0.027,0.084,0.191,0.109,0.233
	c0.102,0.189,0.229,0.369,0.377,0.556c-0.021,0.043-0.041,0.086-0.062,0.127c-0.009,0.001-1.107,0.28-1.193,0.31
	c-0.004-0.513,0.079-1.049,0.275-1.623c0.205-0.604,0.535-1.248,1.015-1.933c0,0,0.274-0.535,0.315-0.645
	c0.23-0.484,0.427-1.016,0.603-1.56c0.174,0.2,0.322,0.41,0.452,0.628c0.165,0.259,0.303,0.533,0.397,0.796
	C34.647,28.481,34.347,29.866,33.605,30.977z M37.76,23.218c-0.042,0.863-0.192,1.877-0.315,2.548c0,0-1.018,2.429-1.549,3.003
	c-0.472,0.507-0.952,0.771-1.446,0.983c0.246-0.844,0.25-1.761-0.072-2.675c0.003-0.008,0.106-0.583,0.174-0.859
	c0.083-0.26,0.164-0.52,0.274-0.767c0.316-0.723,0.769-1.368,1.378-1.924c0.04-0.007,0.07-0.033,0.081-0.071
	c0.422-0.37,0.913-0.698,1.48-0.982c0.004,0.08,0.008,0.163,0.008,0.25C37.772,22.875,37.76,23.04,37.76,23.218z M7.271,21.916
	c0.029-0.305,0.036-0.638,0.031-0.988c0.225-0.169,0.365-0.435,0.504-0.714c0,0,0.139-0.274,0.205-0.383
	c0.043-0.055,0.027-0.137-0.027-0.177c-0.055-0.029-0.137-0.016-0.165,0.04c-0.095,0.123-0.164,0.273-0.232,0.412
	c-0.091,0.18-0.183,0.356-0.293,0.493c-0.011-0.326-0.028-0.668-0.049-1.016c0.21-0.117,0.325-0.318,0.438-0.521
	c0.069-0.109,0.124-0.233,0.206-0.329c0.041-0.04,0.041-0.123-0.014-0.165C7.818,18.53,7.751,18.53,7.71,18.583
	c-0.096,0.11-0.165,0.232-0.234,0.357c-0.077,0.136-0.148,0.263-0.248,0.355c-0.019-0.292-0.037-0.586-0.05-0.879
	c0.202-0.165,0.396-0.726,0.464-0.834c0.04-0.056,0.027-0.123-0.015-0.166c-0.054-0.041-0.138-0.026-0.178,0.028
	c-0.096,0.123-0.24,0.553-0.285,0.629c-0.022-0.616-0.019-1.219,0.038-1.767c0.015-0.069-0.041-0.137-0.109-0.137
	c-0.068-0.013-0.123,0.041-0.137,0.109c-0.053,0.52-0.057,1.074-0.039,1.645c-0.039-0.059-0.207-0.356-0.236-0.397
	c-0.026-0.055-0.096-0.082-0.162-0.055c-0.058,0.042-0.083,0.11-0.058,0.163c0.028,0.044,0.353,0.56,0.471,0.689
	c0.013,0.292,0.028,0.586,0.044,0.877c-0.193-0.168-0.472-0.592-0.472-0.592c-0.028-0.055-0.096-0.081-0.165-0.055
	c-0.055,0.013-0.096,0.096-0.068,0.15c0.135,0.337,0.465,0.619,0.725,0.823c0.021,0.364,0.041,0.722,0.051,1.062
	c-0.088-0.094-0.186-0.206-0.268-0.322c-0.139-0.178-0.234-0.452-0.289-0.493c-0.054-0.042-0.179,0.027-0.179,0.041
	c-0.055,0.097,0.083,0.344,0.274,0.604c0.154,0.205,0.346,0.423,0.47,0.517c0.003,0.338-0.003,0.657-0.03,0.949
	c0,0.069,0.04,0.124,0.109,0.138C7.202,22.024,7.258,21.984,7.271,21.916z M8.603,28.369c0.039-0.199,0.052-0.399,0.039-0.586
	c0-0.206-0.014-0.397-0.041-0.604c0-0.067-0.068-0.11-0.136-0.11c-0.056,0.015-0.111,0.069-0.097,0.137
	c0.014,0.193,0.027,0.385,0.041,0.577c0,0.063-0.005,0.126-0.007,0.188c-0.109-0.208-0.224-0.419-0.336-0.628
	c0.004-0.379-0.071-0.883-0.11-1.248v-0.012c-0.014-0.069-0.082-0.11-0.138-0.11C7.75,25.986,7.696,26.042,7.71,26.11v0.014
	c0.029,0.214,0.064,0.473,0.087,0.718c-0.012-0.02-0.021-0.04-0.032-0.06c-0.088-0.163-0.179-0.328-0.267-0.492
	c0.001-0.011-0.035-0.399-0.063-0.591c-0.013-0.206-0.042-0.397-0.056-0.591c0-0.067-0.055-0.122-0.122-0.122
	c-0.069,0-0.124,0.068-0.124,0.122v0.015c0.014,0.191,0.041,0.398,0.068,0.604c0,0.009,0,0.016,0.002,0.023
	c-0.227-0.409-0.456-0.82-0.688-1.229c-0.041-0.069-0.11-0.083-0.163-0.055c-0.069,0.04-0.083,0.109-0.056,0.164
	c0.268,0.467,0.525,0.929,0.779,1.385c-0.045-0.018-0.09-0.037-0.136-0.056c-0.179-0.068-0.356-0.137-0.521-0.192
	c-0.055-0.026-0.123,0-0.15,0.069c-0.029,0.068,0.014,0.138,0.068,0.15c0.165,0.056,0.342,0.138,0.52,0.206
	c0.139,0.059,0.27,0.107,0.405,0.162c0.099,0.179,0.2,0.36,0.295,0.538c0.048,0.088,0.094,0.178,0.143,0.269
	c-0.079-0.036-0.158-0.075-0.238-0.118c-0.205-0.109-0.398-0.205-0.575-0.261c-0.068-0.027-0.138,0.013-0.165,0.067
	c-0.013,0.069,0.027,0.139,0.081,0.152c0.166,0.054,0.357,0.15,0.55,0.246c0.171,0.106,0.354,0.198,0.526,0.253
	c0.111,0.212,0.223,0.424,0.331,0.633c-0.007-0.003-0.015-0.005-0.021-0.009c-0.275-0.108-0.55-0.262-0.837-0.452
	c-0.056-0.039-0.138-0.027-0.165,0.028c-0.041,0.055-0.027,0.122,0.027,0.162c0.301,0.208,0.59,0.372,0.891,0.495
	c0.056,0.014,0.11,0.041,0.166,0.054c0.031,0.016,0.063,0.027,0.097,0.037c0.11,0.217,0.223,0.435,0.327,0.649
	c0.027,0.068,0.096,0.082,0.166,0.055c0.055-0.028,0.082-0.097,0.055-0.164C8.815,28.784,8.708,28.576,8.603,28.369z M9.382,16.035
	c-0.068,0.054-0.096,0.137-0.096,0.218c0,0.082,0.027,0.165,0.096,0.22c0.035,0.035,0.08,0.054,0.131,0.067
	c0.028,0.009,0.058,0.015,0.088,0.015c0.031,0,0.061-0.006,0.09-0.015c0.05-0.014,0.096-0.032,0.131-0.067
	c0.068-0.055,0.095-0.138,0.095-0.22c0-0.081-0.026-0.164-0.095-0.218c-0.055-0.057-0.138-0.096-0.221-0.096
	C9.519,15.939,9.437,15.978,9.382,16.035z M26.106,33.155c-0.528,0.359-1.058,0.707-1.587,1.043
	c0.013-0.078,0.032-0.155,0.052-0.234c0.042-0.137,0.096-0.286,0.178-0.437c0.042-0.055,0.015-0.124-0.041-0.165
	c-0.055-0.028-0.137-0.014-0.164,0.054c-0.096,0.165-0.164,0.33-0.205,0.494c-0.05,0.151-0.074,0.301-0.08,0.452
	c-0.2,0.125-0.4,0.25-0.603,0.371c0.025-0.146,0.08-0.322,0.161-0.521c0.014-0.056,0.042-0.109,0.082-0.18
	c0.027-0.069,0.055-0.136,0.097-0.191c0.027-0.068,0-0.137-0.056-0.164c-0.054-0.042-0.136-0.014-0.164,0.041v0.015
	c-0.041,0.067-0.068,0.136-0.097,0.191c-0.027,0.056-0.055,0.122-0.095,0.191c-0.12,0.3-0.184,0.563-0.18,0.771
	c-0.236,0.141-0.474,0.281-0.71,0.418c0.003-0.108,0.019-0.229,0.052-0.368c0.069-0.231,0.18-0.493,0.358-0.809
	c0.026-0.054,0-0.123-0.056-0.165c-0.054-0.026-0.123-0.011-0.164,0.057c-0.179,0.328-0.303,0.603-0.37,0.85
	c-0.06,0.216-0.076,0.409-0.061,0.574c-0.165,0.096-0.329,0.188-0.493,0.279c0.024-0.137,0.052-0.273,0.087-0.415
	c0.055-0.205,0.138-0.411,0.219-0.63c0.028-0.056,0-0.125-0.054-0.151c-0.068-0.028-0.138,0-0.165,0.054
	c-0.097,0.234-0.178,0.454-0.233,0.672c-0.05,0.202-0.086,0.404-0.114,0.615c-0.311,0.17-0.62,0.338-0.928,0.498
	c-0.068,0.025-0.082,0.094-0.055,0.163c0.028,0.054,0.096,0.081,0.165,0.041c0.321-0.163,0.643-0.334,0.964-0.509
	c0.2,0.049,0.4,0.086,0.612,0.111c0.221,0.041,0.452,0.054,0.686,0.041c0.069,0,0.124-0.055,0.124-0.123
	c0-0.056-0.055-0.109-0.124-0.109c-0.219,0-0.438-0.016-0.658-0.042c-0.106-0.014-0.216-0.031-0.322-0.052
	c0.149-0.082,0.298-0.167,0.447-0.254c0.192,0.047,0.402,0.073,0.615,0.087c0.22,0.013,0.452,0,0.699-0.015
	c0.069-0.014,0.109-0.068,0.109-0.136c0-0.069-0.068-0.11-0.122-0.11c-0.234,0.027-0.467,0.027-0.687,0.013
	c-0.099,0-0.199-0.006-0.301-0.019c0.205-0.12,0.411-0.243,0.616-0.37c0.195,0.047,0.411,0.061,0.616,0.073
	c0.234,0.016,0.454,0,0.673,0c0.069,0,0.123-0.054,0.123-0.122c0-0.069-0.054-0.123-0.123-0.123c-0.219,0.013-0.438,0.013-0.658,0
	c-0.11,0-0.215-0.008-0.316-0.02c0.188-0.114,0.376-0.231,0.565-0.351l0.93,0.026c0.069,0,0.123-0.056,0.123-0.124
	c0-0.067-0.054-0.122-0.109-0.122l-0.571-0.016c0.48-0.309,0.964-0.628,1.449-0.958c0.054-0.041,0.069-0.11,0.026-0.164
	C26.244,33.128,26.161,33.115,26.106,33.155z M34.936,18.75c-0.042-0.056-0.124-0.056-0.18-0.029
	c-0.054,0.04-0.054,0.125-0.012,0.179c0.137,0.191,0.301,0.368,0.451,0.521c0.148,0.147,0.309,0.271,0.479,0.385l0.028,0.698
	c0,0.068,0.055,0.123,0.123,0.11c0.069,0,0.123-0.057,0.109-0.124l-0.026-0.692c0.035-0.03,0.066-0.06,0.095-0.089
	c0.041-0.041,0.083-0.083,0.137-0.139c0.207-0.244,0.426-0.561,0.617-0.931c0.028-0.069,0.015-0.137-0.055-0.165
	c-0.055-0.039-0.122-0.013-0.15,0.042c-0.191,0.37-0.64,0.94-0.655,0.962l-0.042-1.056c0.142-0.132,0.272-0.301,0.382-0.482
	c0.124-0.207,0.233-0.438,0.329-0.672c0.027-0.068-0.014-0.137-0.068-0.164c-0.069-0.027-0.137,0.014-0.166,0.068
	c-0.08,0.233-0.191,0.452-0.3,0.645c-0.057,0.1-0.122,0.188-0.19,0.268l-0.031-0.826c0.263-0.25,0.379-0.634,0.495-1.031v-0.014
	c0.014-0.054-0.013-0.124-0.082-0.15c-0.067-0.015-0.137,0.026-0.15,0.081v0.016c-0.076,0.262-0.158,0.523-0.277,0.729l-0.052-1.349
	c-0.015-0.068-0.068-0.122-0.137-0.122s-0.11,0.054-0.11,0.122l0.063,1.49c-0.007-0.003-0.351-0.242-0.515-0.421
	c-0.041-0.055-0.125-0.055-0.178-0.014c-0.042,0.057-0.042,0.124,0,0.18c0.178,0.192,0.369,0.355,0.548,0.451
	c0.041,0.028,0.141,0.078,0.155,0.083l0.038,0.906c-0.024-0.008-0.05-0.02-0.069-0.029c-0.191-0.096-0.383-0.274-0.576-0.506
	c-0.043-0.044-0.123-0.057-0.164-0.016c-0.055,0.042-0.069,0.124-0.028,0.179c0.22,0.247,0.425,0.453,0.657,0.562
	c0.042,0.015,0.082,0.041,0.137,0.056c0.02,0.006,0.037,0.01,0.055,0.017l0.042,1.018c-0.098-0.077-0.195-0.162-0.288-0.254
	C35.209,19.104,35.073,18.925,34.936,18.75z M37.142,24.821c-0.191,0.179-0.639,0.47-0.644,0.471
	c0.208-0.48,0.421-0.974,0.644-1.499c0.015-0.055-0.013-0.124-0.068-0.15c-0.067-0.027-0.138,0-0.163,0.055
	c-0.194,0.452-0.396,0.932-0.608,1.424c-0.051-0.204-0.088-0.417-0.105-0.628c0-0.056-0.014-0.398-0.014-0.411
	c0-0.069-0.055-0.124-0.123-0.124c-0.056,0-0.11,0.055-0.11,0.124c0,0.013,0,0.355,0.015,0.424c0.024,0.327,0.077,0.655,0.192,0.962
	c-0.125,0.287-0.25,0.579-0.377,0.872c-0.131-0.224-0.228-0.459-0.282-0.696c-0.014-0.055-0.027-0.122-0.041-0.178
	c0-0.056-0.013-0.124-0.013-0.178c0-0.069-0.07-0.123-0.14-0.123c-0.053,0-0.108,0.067-0.108,0.123v0.014
	c0,0.068,0.014,0.136,0.027,0.204c0,0.056,0.014,0.125,0.028,0.193c0.076,0.309,0.217,0.617,0.415,0.904
	c-0.064,0.15-0.313,0.725-0.373,0.861c-0.048-0.143-0.091-0.285-0.124-0.422c-0.056-0.232-0.096-0.48-0.139-0.713
	c0-0.069-0.067-0.111-0.137-0.111c-0.054,0.016-0.109,0.069-0.095,0.139c0.026,0.246,0.082,0.492,0.137,0.74
	c0.05,0.238,0.127,0.464,0.222,0.681c-0.095,0.225-0.19,0.45-0.29,0.678c-0.027,0.067,0,0.137,0.068,0.163
	c0.055,0.027,0.124,0,0.151-0.068c0.096-0.221,0.193-0.44,0.288-0.662c0.169-0.09,0.337-0.182,0.521-0.298
	c0.191-0.123,0.383-0.247,0.588-0.411c0.055-0.027,0.069-0.11,0.029-0.163c-0.042-0.057-0.111-0.069-0.165-0.028
	c-0.207,0.15-0.398,0.286-0.576,0.397c-0.083,0.047-0.162,0.094-0.24,0.138c0.053-0.122,0.296-0.688,0.366-0.847
	c0.186-0.078,0.371-0.169,0.546-0.293c0.205-0.137,0.411-0.288,0.618-0.493c0.054-0.041,0.054-0.124,0-0.178
	c-0.043-0.042-0.126-0.042-0.166,0c-0.205,0.191-0.397,0.343-0.576,0.467c-0.092,0.059-0.185,0.111-0.276,0.16
	c0.105-0.241,0.211-0.484,0.318-0.731c0.036-0.013,0.205-0.087,0.26-0.115c0.233-0.123,0.48-0.302,0.686-0.493
	c0.055-0.043,0.055-0.124,0.014-0.165C37.279,24.782,37.197,24.782,37.142,24.821z M15.044,9.152
	c0.246-0.088,0.491-0.18,0.735-0.275c0.161,0.057,0.317,0.104,0.472,0.151c0.178,0.042,0.355,0.083,0.533,0.11
	c0.068,0,0.139-0.042,0.139-0.11c0.012-0.068-0.028-0.123-0.098-0.137c-0.178-0.026-0.355-0.054-0.52-0.096
	c-0.058-0.019-0.118-0.039-0.178-0.059c0.227-0.093,0.452-0.19,0.678-0.292c0.242,0.137,0.496,0.189,0.76,0.24
	c0.057,0.014,0.11,0.028,0.166,0.042c0.053,0.013,0.122-0.028,0.137-0.096c0.014-0.069-0.028-0.138-0.096-0.15
	c-0.055-0.016-0.109-0.016-0.165-0.028c-0.181-0.038-0.353-0.071-0.521-0.136c0.051-0.023,0.101-0.046,0.15-0.069
	c0.172-0.084,0.344-0.172,0.515-0.263c0.321,0.083,0.993,0.098,1.007,0.098c0.068,0.014,0.123-0.041,0.123-0.108
	c0-0.069-0.055-0.125-0.109-0.125c-0.027,0-0.469-0.02-0.676-0.048c0.437-0.232,0.873-0.482,1.32-0.746
	c0.055-0.041,0.082-0.11,0.041-0.179c-0.027-0.055-0.109-0.068-0.164-0.041c-0.482,0.294-0.952,0.557-1.418,0.805
	c0.028-0.092,0.064-0.188,0.102-0.284c0.027-0.027,0.041-0.068,0.055-0.097c0.014-0.026,0.026-0.067,0.056-0.094
	C18.114,7.109,18.101,7.028,18.046,7c-0.068-0.041-0.137-0.016-0.164,0.04c0,0-0.262,0.585-0.293,0.752
	c-0.154,0.079-0.307,0.159-0.461,0.236c-0.057,0.026-0.115,0.052-0.172,0.078c0.014-0.079,0.025-0.158,0.049-0.23
	c0.04-0.151,0.096-0.287,0.191-0.411c0.041-0.054,0.027-0.137-0.027-0.178S17.03,7.259,16.99,7.315
	c-0.11,0.164-0.178,0.329-0.22,0.494c-0.035,0.14-0.058,0.28-0.072,0.418c-0.266,0.12-0.529,0.235-0.797,0.346
	c0.029-0.109,0.059-0.215,0.103-0.325c0.054-0.165,0.136-0.343,0.247-0.535c0.026-0.056,0.014-0.123-0.056-0.164
	C16.14,7.52,16.071,7.535,16.03,7.603c-0.109,0.191-0.191,0.382-0.26,0.563c-0.064,0.18-0.105,0.349-0.144,0.518
	c-0.22,0.087-0.44,0.171-0.666,0.25c-0.067,0.013-0.095,0.081-0.067,0.149C14.907,9.152,14.976,9.178,15.044,9.152z M10.712,13.813
	c0.055-0.041,0.068-0.11,0.041-0.165c-0.027-0.067-0.109-0.082-0.165-0.055c-0.122,0.068-0.233,0.137-0.329,0.206
	c-0.102,0.071-0.191,0.128-0.298,0.163c0.124-0.226,0.253-0.469,0.387-0.731c0.243,0.018,0.454-0.118,0.665-0.241
	c0.11-0.068,0.206-0.137,0.302-0.164c0.069-0.027,0.097-0.098,0.083-0.151c-0.027-0.067-0.097-0.096-0.151-0.081
	c-0.123,0.039-0.246,0.109-0.356,0.19c-0.139,0.08-0.275,0.164-0.412,0.197c0-0.003,0-0.004,0.002-0.005
	c0.102-0.201,0.207-0.408,0.316-0.619c0.317-0.028,0.793-0.353,0.876-0.409c0.055-0.028,0.068-0.108,0.026-0.163
	c-0.026-0.057-0.109-0.069-0.164-0.042c-0.082,0.056-0.439,0.305-0.596,0.343c0.34-0.641,1.145-1.919,1.158-1.919
	c0.026-0.056,0.014-0.136-0.042-0.164c-0.062-0.038-0.122-0.017-0.163,0.028c-0.403,0.572-0.762,1.188-1.088,1.79
	c-0.026-0.14-0.065-0.654-0.065-0.682c0.015-0.068-0.026-0.137-0.095-0.15c-0.068,0-0.123,0.042-0.137,0.109
	c-0.015,0.041,0.073,0.859,0.121,1.055c-0.115,0.219-0.225,0.433-0.331,0.642c-0.014-0.026-0.026-0.052-0.038-0.077
	c-0.095-0.208-0.205-0.413-0.15-0.604c0.015-0.068-0.027-0.138-0.096-0.15c-0.055-0.015-0.123,0.027-0.137,0.097
	c-0.082,0.273,0.04,0.52,0.164,0.767c0.043,0.086,0.082,0.169,0.111,0.248c-0.15,0.291-0.291,0.564-0.426,0.81
	c-0.044-0.153-0.084-0.35-0.109-0.522c0-0.055-0.016-0.109-0.016-0.152c0-0.04-0.013-0.067-0.013-0.108v-0.014
	c0-0.069-0.055-0.123-0.124-0.123c-0.068,0-0.123,0.054-0.109,0.123v0.15c0.014,0.055,0.014,0.11,0.027,0.15
	c0.039,0.267,0.117,0.604,0.186,0.776c-0.102,0.173-0.199,0.327-0.295,0.458c-0.041,0.042-0.027,0.124,0.027,0.164
	s0.137,0.029,0.164-0.027c0.109-0.147,0.222-0.32,0.335-0.511c0.255-0.023,0.405-0.122,0.598-0.243
	C10.479,13.935,10.575,13.88,10.712,13.813z M31.838,32.362c0.04-0.18,0.122-0.344,0.205-0.507c0.04-0.057,0.015-0.124-0.041-0.166
	c-0.056-0.026-0.137-0.014-0.164,0.055c-0.098,0.179-0.179,0.356-0.234,0.548c-0.048,0.16-0.085,0.329-0.093,0.5
	c-0.275,0.172-0.556,0.342-0.838,0.506c0.021-0.221,0.059-0.438,0.122-0.648c0.014-0.069,0.082-0.274,0.11-0.343
	c0.026-0.068-0.015-0.137-0.069-0.151c-0.067-0.028-0.136,0-0.165,0.069c-0.013,0.056-0.094,0.301-0.109,0.355
	c-0.077,0.289-0.119,0.577-0.146,0.866c-0.309,0.171-0.62,0.337-0.937,0.498c0.008-0.138,0.03-0.274,0.069-0.417
	c0.069-0.193,0.164-0.398,0.302-0.592c0.042-0.054,0.027-0.136-0.027-0.163c-0.056-0.041-0.124-0.026-0.165,0.027
	c-0.15,0.221-0.261,0.438-0.343,0.658c-0.062,0.196-0.089,0.404-0.083,0.613c-0.508,0.253-1.026,0.493-1.562,0.717
	c-0.056,0.027-0.084,0.097-0.056,0.149c0.015,0.069,0.096,0.098,0.151,0.069c0.199-0.081,0.393-0.168,0.585-0.253
	c0.012,0.008,0.019,0.016,0.032,0.02c0.177,0.084,0.355,0.124,0.549,0.151c0.177,0.013,0.369,0.013,0.547-0.013
	c0.069-0.015,0.124-0.07,0.109-0.139c-0.013-0.067-0.067-0.109-0.136-0.109c-0.165,0.028-0.344,0.028-0.509,0.015
	c-0.092-0.009-0.191-0.031-0.289-0.06c0.247-0.114,0.488-0.232,0.729-0.351c0.196,0.058,0.373,0.096,0.534,0.108
	c0.192,0.026,0.356,0.041,0.523,0.026c0.067,0,0.121-0.055,0.121-0.122c-0.013-0.068-0.067-0.124-0.136-0.124
	c-0.152,0.016-0.303,0.016-0.466-0.013c-0.08-0.014-0.161-0.028-0.242-0.045c0.293-0.154,0.584-0.308,0.87-0.47
	c0.138,0.04,0.274,0.066,0.412,0.089c0.165,0.015,0.329,0.027,0.493,0.027c0.069,0.014,0.125-0.041,0.125-0.11
	c0-0.067-0.056-0.123-0.125-0.123c-0.164,0-0.554-0.055-0.599-0.063c0.256-0.152,0.507-0.306,0.757-0.462
	c0.132,0.035,0.257,0.059,0.392,0.059c0.137,0.013,0.287,0.013,0.439,0c0.067,0,0.108-0.068,0.108-0.136
	c-0.014-0.056-0.068-0.111-0.137-0.097c-0.138,0.013-0.465-0.011-0.498-0.017c0.427-0.272,0.849-0.551,1.266-0.835
	c0.055-0.04,0.068-0.123,0.026-0.177c-0.041-0.055-0.122-0.069-0.177-0.028c-0.422,0.296-0.855,0.587-1.297,0.87
	C31.787,32.538,31.808,32.451,31.838,32.362z M29.027,10.441c0.054-0.056,0.097-0.137,0.097-0.219c0-0.083-0.043-0.165-0.097-0.22
	c-0.056-0.056-0.139-0.096-0.233-0.096c-0.082,0-0.165,0.04-0.22,0.096c-0.055,0.055-0.096,0.123-0.096,0.22
	c0,0.082,0.041,0.163,0.096,0.219c0.055,0.055,0.138,0.081,0.22,0.081C28.889,10.522,28.972,10.496,29.027,10.441z M13.114,27.083
	c0,1.702,0.771,2.57,2.354,2.657c1.318,0,2.68,0,4.029,0.096c0.874,0.059,1.619,0.458,2.238,1.203
	c0.51-0.678,1.217-1.063,2.288-1.203c1.278-0.096,2.581-0.096,3.842-0.096c1.527-0.11,2.272-0.911,2.272-2.453
	c0-0.067-0.001-0.135-0.005-0.204c0,0,0-13.706,0-14.034H13.114C13.114,13.377,13.114,27.083,13.114,27.083z M23.979,19.145h5.277
	v-0.521h-5.208v-0.37h5.208v-0.522h-5.208V17.35h5.208v-0.452h-5.208v-0.385h5.208v-0.562h-5.208v-0.385h5.208V14.95h-5.208v-0.369
	h5.208v-0.548h-5.277v-0.576h5.758v6.086h-5.758V19.145z M23.964,29.012h3.511c0.588,0.04,1.412-0.315,1.412-0.589l-4.923-0.015
	V28.08h5.127c0.015-0.055,0.097-0.329,0.097-0.561h-5.224v-0.33l5.224-0.014v-0.576h-5.224v-0.328h5.224l0.014-0.673h-5.223v-0.329
	h5.223v-0.671h-5.223v-0.355h5.223v-0.632h-5.223v-0.617h5.758v4.58c-0.041,1.11-0.96,1.891-2.262,1.781h-3.511V29.012z
	 M19.377,29.355H15.4c-0.356,0.014-0.754-0.138-0.987-0.343h4.414v-0.589h-4.783c-0.138-0.11-0.221-0.248-0.248-0.344h5.031v-0.561
	h-5.196c-0.04-0.097-0.054-0.248-0.054-0.344h5.25v-0.576h-5.25v-0.328h5.25v-0.673h-5.25v-0.329h5.25v-0.671h-5.25v-0.355h5.25
	v-0.632h-5.25v-0.617h5.8V29.355z M13.576,19.145h5.277v-0.521h-5.208v-0.37h5.208v-0.522h-5.208V17.35h5.208v-0.452h-5.208v-0.385
	h5.208v-0.562h-5.208v-0.385h5.208V14.95h-5.208v-0.369h5.208v-0.548h-5.277v-0.576h5.759v6.086h-5.759V19.145z M12.431,13.096
	c0,0.21-0.001,13.974-0.001,13.974c0.132,2.318,1.356,3.397,3.758,3.299l3.332,0.096l0.026,0.008
	c1.025,0.283,1.743,0.851,2.208,1.721c0.498-0.967,1.244-1.562,2.277-1.729c0,0,3.55-0.096,3.552-0.096
	c1.891-0.027,2.805-0.891,2.879-2.71c0,0,0-0.103,0-0.275c-0.033,1.66-0.892,2.573-2.574,2.692c0,0-0.007-0.084-0.014-0.168
	c0,0.084,0,0.168,0,0.168c-1.314,0-2.557,0-3.815,0.095c-1.065,0.14-1.72,0.506-2.185,1.225l-0.129,0.193l-0.179-0.226
	c0,0-0.092-0.132-0.073-0.102c-0.544-0.669-1.224-1.037-2.02-1.091c-1.338-0.095-2.694-0.095-4.016-0.095
	c-1.777-0.096-2.68-1.103-2.68-2.992V12.811C12.663,12.905,12.507,13.033,12.431,13.096z"/>
<g>
	<g>
		<path fill="#FFFFFF" d="M46.405,22.419v-6.512h4.091l-0.186,1.068h-2.459v1.508h2.056v1.068h-2.035v1.742h2.717v1.125H46.405z"/>
		<path fill="#FFFFFF" d="M55.654,22.419l-0.837-2.633c-0.248-0.777-0.413-1.564-0.578-2.352c-0.176,0.787-0.372,1.574-0.62,2.352
			l-0.826,2.633h-1.509l2.221-6.53h1.561l2.128,6.53H55.654z"/>
		<path fill="#FFFFFF" d="M62.021,22.419l-0.837-2.633c-0.248-0.777-0.413-1.564-0.579-2.352c-0.175,0.787-0.371,1.574-0.619,2.352
			l-0.826,2.633H57.65l2.221-6.53h1.561l2.128,6.53H62.021z"/>
		<path fill="#FFFFFF" d="M68.272,22.419v-2.904h-2.065v2.904h-1.437v-6.512h1.437v2.529h2.065v-2.529h1.467v6.512H68.272z"/>
		<path fill="#FFFFFF" d="M75.188,22.419l-1.229-2.492c-0.402-0.815-0.836-1.733-0.971-2.137c0.052,0.534,0.063,1.303,0.072,1.846
			l0.041,2.783h-1.395v-6.512h1.602l1.374,2.604c0.361,0.693,0.641,1.377,0.785,1.846c-0.052-0.506-0.104-1.34-0.114-1.789
			l-0.03-2.661h1.374v6.512H75.188z"/>
		<path fill="#FFFFFF" d="M78.661,22.419v-6.512h1.509v6.512H78.661z"/>
		<path fill="#FFFFFF" d="M85.792,22.419l-2.18-3.401v3.401h-1.478v-6.512h1.478v2.97l2.045-2.97h1.777l-2.293,3.017l2.551,3.495
			H85.792z"/>
		<path fill="#FFFFFF" d="M92.229,22.419v-2.904h-2.064v2.904h-1.438v-6.512h1.438v2.529h2.064v-2.529h1.467v6.512H92.229z"/>
		<path fill="#FFFFFF" d="M103.391,22.419h-5.506v-0.993l2.221-5.537h1.281l2.221,5.612L103.391,22.419z M101.129,18.953
			c-0.072-0.206-0.361-1.077-0.393-1.312c-0.031,0.234-0.342,1.087-0.424,1.312l-0.92,2.342h2.613L101.129,18.953z"/>
		<path fill="#FFFFFF" d="M108.508,22.419v-2.904h-2.066v2.904h-1.436v-6.512h1.436v2.529h2.066v-2.529h1.467v6.512H108.508z"/>
		<path fill="#FFFFFF" d="M117.737,22.419l-0.27-3.477c-0.031-0.412-0.051-0.739-0.051-1.086c-0.084,0.374-0.145,0.608-0.27,1.002
			l-1.137,3.561h-1.229L113.758,19c-0.092-0.318-0.217-0.777-0.289-1.152c0,0.384-0.02,0.769-0.051,1.171l-0.248,3.401h-1.436
			l0.67-6.512h1.85l0.939,3.261c0.135,0.468,0.188,0.693,0.248,1.03c0.063-0.337,0.145-0.675,0.26-1.059l0.971-3.232h1.838
			l0.641,6.512H117.737z"/>
		<path fill="#FFFFFF" d="M125.198,22.222c-0.434,0.216-0.836,0.3-1.436,0.3c-1.084,0-1.787-0.271-2.334-0.918
			c-0.547-0.637-0.826-1.462-0.826-2.417c0-1.405,0.588-2.529,1.621-3.045c0.424-0.206,0.951-0.318,1.488-0.318
			c1.91,0,3.088,1.265,3.088,3.307C126.799,20.602,126.243,21.708,125.198,22.222z M124.95,17.66
			c-0.113-0.328-0.494-0.824-1.26-0.824c-0.484,0-0.908,0.225-1.115,0.571c-0.248,0.422-0.361,0.993-0.361,1.78
			c0,1.124,0.207,1.827,0.641,2.107c0.227,0.15,0.516,0.226,0.857,0.226c1.002,0,1.426-0.693,1.426-2.352
			C125.137,18.503,125.075,18.025,124.95,17.66z"/>
		<path fill="#FFFFFF" d="M132.114,22.419l-2.18-3.401v3.401h-1.479v-6.512h1.479v2.97l2.045-2.97h1.777l-2.293,3.017l2.551,3.495
			H132.114z"/>
		<path fill="#FFFFFF" d="M138.727,19.805c-0.33,0.141-0.641,0.216-1.436,0.216h-0.795v2.398h-1.447v-6.512h1.891
			c1.219,0,1.592,0.112,1.994,0.318c0.672,0.338,1.033,0.938,1.033,1.687C139.967,18.775,139.512,19.468,138.727,19.805z
			 M137.417,16.966h-0.92v1.986h0.754c0.588,0,0.764-0.065,0.961-0.337c0.123-0.179,0.176-0.365,0.176-0.675
			C138.387,17.332,138.026,16.966,137.417,16.966z"/>
		<path fill="#FFFFFF" d="M144.825,22.419l-0.506-1.546h-2.107l-0.506,1.546h-1.508l2.355-6.53h1.559l2.264,6.53H144.825z
			 M143.575,18.475c-0.072-0.3-0.289-1.152-0.289-1.152s-0.205,0.768-0.34,1.255c-0.135,0.469-0.229,0.778-0.383,1.209h1.404
			C143.967,19.787,143.731,19.103,143.575,18.475z"/>
		<path fill="#FFFFFF" d="M151.233,16.995h-1.715v5.425h-1.467v-5.425h-1.756v-1.087h5.176L151.233,16.995z"/>
		<path fill="#FFFFFF" d="M152.506,22.419v-6.512h1.508v6.512H152.506z"/>
		<path fill="#FFFFFF" d="M159.801,22.419l-0.506-1.546h-2.107l-0.506,1.546h-1.51l2.355-6.53h1.561l2.262,6.53H159.801z
			 M158.551,18.475c-0.072-0.3-0.289-1.152-0.289-1.152s-0.207,0.768-0.342,1.255c-0.133,0.469-0.227,0.778-0.381,1.209h1.404
			C158.944,19.787,158.706,19.103,158.551,18.475z"/>
	</g>
</g>
<g>
	<g>
		<path fill="#FFFFFF" d="M47.742,30.394v1.842h-0.587V30.36l-1.523-2.855h0.696l0.896,1.808c0.131,0.269,0.241,0.531,0.241,0.531
			s0.117-0.256,0.256-0.531l0.91-1.808h0.648L47.742,30.394z"/>
		<path fill="#FFFFFF" d="M52.456,29.229h-0.345v1.89c0,0.559,0.021,0.703,0.275,0.842l-0.275,0.386
			c-0.187-0.062-0.338-0.187-0.421-0.366c-0.076-0.15-0.104-0.303-0.104-0.537v-2.214h-1.262v3.007h-0.524v-3.007h-0.455v-0.428
			h3.276L52.456,29.229z"/>
		<path fill="#FFFFFF" d="M54.722,32.326c-0.944,0-1.482-0.697-1.482-1.828c0-1.117,0.559-1.8,1.462-1.8
			c0.572,0,0.945,0.263,1.18,0.601c0.214,0.31,0.317,0.717,0.317,1.275C56.198,31.718,55.584,32.326,54.722,32.326z M55.426,29.581
			c-0.146-0.304-0.448-0.441-0.731-0.441c-0.304,0-0.586,0.145-0.703,0.372c-0.11,0.214-0.166,0.49-0.166,0.896
			c0,0.483,0.083,0.91,0.214,1.125c0.124,0.207,0.4,0.345,0.696,0.345c0.359,0,0.628-0.187,0.745-0.518
			c0.076-0.214,0.104-0.407,0.104-0.745C55.584,30.132,55.536,29.808,55.426,29.581z"/>
		<path fill="#FFFFFF" d="M58.436,32.346c-0.849,0-1.235-0.435-1.235-1.11v-2.407l0.531-0.104v2.4c0,0.511,0.145,0.807,0.731,0.807
			c0.482,0,0.772-0.248,0.772-0.813v-2.283l0.531-0.09v2.4C59.767,31.815,59.276,32.346,58.436,32.346z"/>
		<path fill="#FFFFFF" d="M63.383,31.698c-0.248,0.4-0.613,0.628-1.062,0.628c-0.352,0-0.704-0.152-0.945-0.4
			c0,0.063,0,1.642,0,1.642l-0.538,0.104v-3.372c0-0.98,0.441-1.587,1.414-1.587c0.925,0,1.407,0.662,1.407,1.8
			C63.659,31.064,63.576,31.38,63.383,31.698z M62.177,29.132c-0.477,0-0.801,0.387-0.801,1.082v1.215
			c0.256,0.289,0.552,0.448,0.842,0.448c0.317,0,0.606-0.173,0.724-0.428c0.104-0.221,0.146-0.483,0.146-0.869
			C63.087,29.691,62.839,29.132,62.177,29.132z"/>
		<path fill="#FFFFFF" d="M66.042,32.236v1.331l-0.545,0.104v-1.435l-0.89-2.752c-0.063-0.2-0.124-0.283-0.214-0.283
			c-0.063,0-0.117,0.014-0.173,0.049l-0.151-0.359c0.151-0.096,0.324-0.15,0.476-0.15c0.311,0,0.477,0.186,0.559,0.475l0.552,1.835
			c0.063,0.193,0.097,0.324,0.132,0.511h0.014c0.048-0.193,0.082-0.338,0.138-0.511l0.745-2.248h0.565L66.042,32.236z"/>
		<path fill="#FFFFFF" d="M69.163,32.326c-0.531,0-1.317-0.187-1.317-1.008c0-0.503,0.345-0.807,0.813-0.91
			c-0.455-0.117-0.689-0.393-0.689-0.752c0-0.53,0.524-0.965,1.248-0.965c0.518,0,0.959,0.166,1.297,0.476l-0.234,0.311
			c-0.283-0.214-0.655-0.358-1.041-0.358c-0.428,0-0.697,0.228-0.697,0.523c0,0.441,0.394,0.587,0.745,0.587h0.4v0.394h-0.387
			c-0.414,0-0.869,0.123-0.869,0.627c0,0.462,0.448,0.628,0.828,0.628c0.476,0,0.848-0.104,1.117-0.324l0.207,0.345
			C70.253,32.173,69.763,32.326,69.163,32.326z"/>
		<path fill="#FFFFFF" d="M72.084,32.304c-0.166,0-0.304-0.048-0.407-0.145c-0.11-0.096-0.165-0.241-0.165-0.489v-2.146
			c0-0.447-0.083-0.703-0.083-0.703l0.538-0.104c0,0,0.089,0.29,0.089,0.814v2.014c0,0.269,0.042,0.345,0.193,0.345
			c0.021,0,0.069-0.014,0.069-0.014l0.11,0.352C72.291,32.291,72.229,32.304,72.084,32.304z M71.877,28.346l-0.255-0.11l0.482-1.449
			l0.482,0.207L71.877,28.346z"/>
		<path fill="#FFFFFF" d="M74.599,32.326c-0.944,0-1.482-0.697-1.482-1.828c0-1.117,0.559-1.8,1.462-1.8
			c0.572,0,0.945,0.263,1.18,0.601c0.214,0.31,0.317,0.717,0.317,1.275C76.075,31.718,75.461,32.326,74.599,32.326z M75.303,29.581
			c-0.146-0.304-0.448-0.441-0.731-0.441c-0.304,0-0.586,0.145-0.703,0.372c-0.11,0.214-0.166,0.49-0.166,0.896
			c0,0.483,0.083,0.91,0.214,1.125c0.124,0.207,0.4,0.345,0.696,0.345c0.359,0,0.628-0.187,0.745-0.518
			c0.076-0.214,0.104-0.407,0.104-0.745C75.461,30.132,75.413,29.808,75.303,29.581z"/>
		<path fill="#FFFFFF" d="M80.898,31.173v1.063h-0.552v-1.063c-0.925-0.014-1.828-0.462-1.828-1.848v-1.821h0.552v1.738
			c0,0.759,0.2,1.428,1.276,1.441v-3.18h0.552v3.18c0.779-0.014,1.275-0.428,1.275-1.241v-1.938h0.552v1.897
			C82.726,30.484,82.002,31.16,80.898,31.173z"/>
		<path fill="#FFFFFF" d="M86.348,32.346c-0.186-0.062-0.357-0.187-0.441-0.366c-0.076-0.15-0.104-0.303-0.104-0.537v-1.531
			c0-0.365-0.027-0.455-0.123-0.572c-0.076-0.09-0.221-0.145-0.381-0.145c-0.275,0-0.703,0.221-0.951,0.482v2.559h-0.523v-2.648
			c0-0.49-0.131-0.725-0.131-0.725l0.523-0.145c0,0,0.125,0.256,0.125,0.538c0.357-0.358,0.717-0.531,1.082-0.531
			c0.373,0,0.703,0.2,0.842,0.504c0.055,0.124,0.082,0.262,0.082,0.399v1.49c0,0.559,0.021,0.703,0.275,0.842L86.348,32.346z"/>
		<path fill="#FFFFFF" d="M89.696,32.326v1.241l-0.545,0.104v-1.345c-1.131,0-1.744-0.689-1.744-1.828
			c0-0.965,0.469-1.593,1.27-1.752v0.455c-0.51,0.152-0.684,0.518-0.684,1.207c0,0.483,0.111,0.91,0.283,1.125
			c0.166,0.199,0.482,0.338,0.875,0.345v-3.166c0.139-0.007,0.354-0.014,0.49-0.014c0.684,0,1.104,0.263,1.387,0.601
			c0.256,0.31,0.379,0.717,0.379,1.275C91.407,31.698,90.717,32.312,89.696,32.326z M90.594,29.581
			c-0.188-0.29-0.553-0.441-0.898-0.441v2.738c0.477,0,0.814-0.187,0.967-0.518c0.104-0.214,0.137-0.407,0.137-0.745
			C90.799,30.132,90.739,29.808,90.594,29.581z"/>
		<path fill="#FFFFFF" d="M92.995,32.304c-0.166,0-0.303-0.048-0.406-0.145c-0.111-0.096-0.166-0.241-0.166-0.489v-2.146
			c0-0.447-0.082-0.703-0.082-0.703l0.537-0.104c0,0,0.09,0.29,0.09,0.814v2.014c0,0.269,0.041,0.345,0.193,0.345
			c0.02,0,0.068-0.014,0.068-0.014l0.111,0.352C93.202,32.291,93.139,32.304,92.995,32.304z"/>
		<path fill="#FFFFFF" d="M96.883,32.333c-0.234-0.076-0.406-0.263-0.469-0.503c-0.332,0.33-0.621,0.482-1.014,0.482
			c-0.318,0-0.559-0.09-0.787-0.283c-0.338-0.283-0.551-0.711-0.551-1.406c0-0.684,0.096-1.063,0.324-1.373
			c0.254-0.352,0.621-0.552,1.027-0.552c0.373,0,0.676,0.151,0.973,0.483c0.006-0.09,0.033-0.305,0.068-0.38h0.531
			c0,0-0.104,0.31-0.104,0.883v1.421c0,0.559,0.021,0.703,0.275,0.842L96.883,32.333z M96.366,29.67
			c-0.186-0.297-0.545-0.489-0.875-0.489c-0.297,0-0.559,0.15-0.697,0.42c-0.117,0.228-0.158,0.441-0.158,0.896
			c0,0.752,0.152,0.986,0.324,1.145c0.145,0.139,0.311,0.207,0.572,0.207c0.352,0,0.654-0.186,0.834-0.523V29.67z"/>
		<path fill="#FFFFFF" d="M100.217,32.236l-1.504-1.855v1.855h-0.537v-2.711c0-0.447-0.09-0.668-0.09-0.668l0.539-0.139
			c0,0,0.088,0.29,0.088,0.814v0.848l1.387-1.579h0.684l-1.436,1.579l1.586,1.855H100.217z"/>
		<path fill="#FFFFFF" d="M104.229,32.346c-0.188-0.062-0.359-0.187-0.441-0.366c-0.076-0.15-0.104-0.303-0.104-0.537v-1.531
			c0-0.365-0.027-0.455-0.125-0.572c-0.076-0.09-0.221-0.145-0.379-0.145c-0.275,0-0.703,0.221-0.951,0.482v2.559h-0.525v-2.648
			c0-0.49-0.131-0.725-0.131-0.725l0.523-0.145c0,0,0.125,0.256,0.125,0.538c0.359-0.358,0.717-0.531,1.082-0.531
			c0.373,0,0.705,0.2,0.842,0.504c0.057,0.124,0.084,0.262,0.084,0.399v1.49c0,0.559,0.02,0.703,0.275,0.842L104.229,32.346z
			 M103.063,28.346l-0.256-0.11l0.482-1.449l0.484,0.207L103.063,28.346z"/>
		<path fill="#FFFFFF" d="M107.239,33.67l-0.332-0.228c0.201-0.289,0.318-0.421,0.318-0.759c0-0.394-0.289-0.497-0.613-0.538
			c-0.869-0.117-1.318-0.565-1.318-1.545c0-0.779,0.221-1.193,0.518-1.49c0.27-0.269,0.566-0.399,0.932-0.399
			c0.434,0,0.689,0.165,0.938,0.372l-0.297,0.373c-0.242-0.2-0.393-0.275-0.654-0.275c-0.27,0-0.525,0.15-0.648,0.386
			c-0.131,0.241-0.193,0.62-0.193,1.034c0,0.766,0.371,0.952,0.842,1.049c0.613,0.124,1.02,0.221,1.02,0.91
			C107.749,33.015,107.514,33.298,107.239,33.67z"/>
		<path fill="#FFFFFF" d="M113.481,32.236h-3.785v-0.4l1.613-4.331h0.711l1.572,4.249L113.481,32.236z M111.641,28.001l-1.346,3.752
			h2.656L111.641,28.001z"/>
		<path fill="#FFFFFF" d="M114.92,32.304c-0.166,0-0.305-0.048-0.408-0.145c-0.109-0.096-0.164-0.241-0.164-0.489v-2.146
			c0-0.447-0.084-0.703-0.084-0.703l0.539-0.104c0,0,0.088,0.29,0.088,0.814v2.014c0,0.269,0.043,0.345,0.193,0.345
			c0.021,0,0.07-0.014,0.07-0.014l0.109,0.352C115.127,32.291,115.065,32.304,114.92,32.304z"/>
		<path fill="#FFFFFF" d="M118.807,32.333c-0.234-0.076-0.406-0.263-0.469-0.503c-0.332,0.33-0.621,0.482-1.014,0.482
			c-0.318,0-0.559-0.09-0.787-0.283c-0.338-0.283-0.551-0.711-0.551-1.406c0-0.684,0.096-1.063,0.324-1.373
			c0.254-0.352,0.621-0.552,1.027-0.552c0.373,0,0.676,0.151,0.973,0.483c0.006-0.09,0.033-0.305,0.068-0.38h0.531
			c0,0-0.104,0.31-0.104,0.883v1.421c0,0.559,0.021,0.703,0.275,0.842L118.807,32.333z M118.29,29.67
			c-0.186-0.297-0.545-0.489-0.875-0.489c-0.297,0-0.559,0.15-0.697,0.42c-0.117,0.228-0.158,0.441-0.158,0.896
			c0,0.752,0.152,0.986,0.324,1.145c0.145,0.139,0.311,0.207,0.572,0.207c0.352,0,0.654-0.186,0.834-0.523V29.67z"/>
		<path fill="#FFFFFF" d="M122.141,32.236l-1.504-1.855v1.855H120.1v-2.711c0-0.447-0.09-0.668-0.09-0.668l0.539-0.139
			c0,0,0.088,0.29,0.088,0.814v0.848l1.387-1.579h0.684l-1.436,1.579l1.586,1.855H122.141z"/>
		<path fill="#FFFFFF" d="M124.801,32.346c-0.85,0-1.236-0.435-1.236-1.11v-2.407l0.531-0.104v2.4c0,0.511,0.145,0.807,0.732,0.807
			c0.482,0,0.771-0.248,0.771-0.813v-2.283l0.531-0.09v2.4C126.131,31.815,125.641,32.346,124.801,32.346z"/>
		<path fill="#FFFFFF" d="M128.77,32.326c-0.297,0-0.656-0.152-0.898-0.4v1.642l-0.529,0.104v-4.8c0-0.945,0.357-1.449,1.357-1.449
			c0.766,0,1.27,0.518,1.27,1.18c0,0.49-0.234,0.862-0.752,1.007c0.689,0.159,1.008,0.642,1.008,1.221
			C130.225,31.477,129.762,32.326,128.77,32.326z M128.459,29.891h-0.098l0.104-0.4c0.586,0,0.918-0.269,0.918-0.821
			c0-0.447-0.234-0.848-0.76-0.848c-0.475,0-0.752,0.283-0.752,0.973v2.635c0.256,0.289,0.559,0.448,0.85,0.448
			c0.621,0,0.896-0.524,0.896-0.966C129.618,30.201,129.239,29.891,128.459,29.891z"/>
		<path fill="#FFFFFF" d="M132.36,32.326c-0.531,0-1.318-0.187-1.318-1.008c0-0.503,0.346-0.807,0.814-0.91
			c-0.455-0.117-0.689-0.393-0.689-0.752c0-0.53,0.523-0.965,1.248-0.965c0.518,0,0.959,0.166,1.297,0.476l-0.234,0.311
			c-0.283-0.214-0.656-0.358-1.043-0.358c-0.426,0-0.695,0.228-0.695,0.523c0,0.441,0.393,0.587,0.744,0.587h0.4v0.394h-0.387
			c-0.414,0-0.869,0.123-0.869,0.627c0,0.462,0.449,0.628,0.828,0.628c0.477,0,0.848-0.104,1.117-0.324l0.207,0.345
			C133.45,32.173,132.959,32.326,132.36,32.326z M132.559,28.346l-0.256-0.11l0.484-1.449l0.482,0.207L132.559,28.346z"/>
		<path fill="#FFFFFF" d="M137.12,31.698c-0.248,0.4-0.613,0.628-1.061,0.628c-0.352,0-0.705-0.152-0.945-0.4
			c0,0.063,0,1.642,0,1.642l-0.539,0.104v-3.372c0-0.98,0.441-1.587,1.414-1.587c0.926,0,1.408,0.662,1.408,1.8
			C137.397,31.064,137.313,31.38,137.12,31.698z M135.913,29.132c-0.475,0-0.799,0.387-0.799,1.082v1.215
			c0.256,0.289,0.551,0.448,0.842,0.448c0.316,0,0.605-0.173,0.723-0.428c0.104-0.221,0.146-0.483,0.146-0.869
			C136.825,29.691,136.575,29.132,135.913,29.132z"/>
		<path fill="#FFFFFF" d="M139.676,32.271h-0.531l-1.234-3.442l0.551-0.117l0.801,2.366c0.096,0.282,0.166,0.586,0.166,0.586h0.014
			c0,0,0.055-0.27,0.164-0.58l0.787-2.282h0.572L139.676,32.271z"/>
		<path fill="#FFFFFF" d="M144.247,32.346c-0.188-0.062-0.359-0.187-0.441-0.366c-0.076-0.15-0.104-0.303-0.104-0.537v-1.531
			c0-0.365-0.027-0.455-0.125-0.572c-0.076-0.09-0.221-0.145-0.379-0.145c-0.275,0-0.703,0.221-0.951,0.482v2.559h-0.525v-2.648
			c0-0.49-0.131-0.725-0.131-0.725l0.523-0.145c0,0,0.125,0.256,0.125,0.538c0.359-0.358,0.717-0.531,1.082-0.531
			c0.373,0,0.705,0.2,0.842,0.504c0.057,0.124,0.084,0.262,0.084,0.399v1.49c0,0.559,0.02,0.703,0.275,0.842L144.247,32.346z"/>
		<path fill="#FFFFFF" d="M148.434,29.229h-0.627c0.283,0.29,0.463,0.703,0.463,1.345c0,1.145-0.615,1.752-1.477,1.752
			c-0.945,0-1.482-0.697-1.482-1.828c0-1.021,0.545-1.696,1.469-1.696h1.82L148.434,29.229z M146.766,29.229
			c-0.76,0-0.869,0.572-0.869,1.179c0,0.483,0.082,0.91,0.213,1.125c0.125,0.207,0.4,0.345,0.697,0.345
			c0.359,0,0.627-0.187,0.744-0.518c0.076-0.214,0.104-0.407,0.104-0.745C147.655,29.994,147.592,29.229,146.766,29.229z"/>
		<path fill="#FFFFFF" d="M151.969,32.346c-0.186-0.062-0.357-0.187-0.441-0.366c-0.076-0.15-0.104-0.303-0.104-0.537v-1.531
			c0-0.365-0.027-0.455-0.123-0.572c-0.076-0.09-0.221-0.145-0.381-0.145c-0.275,0-0.703,0.221-0.951,0.482v2.559h-0.523v-2.648
			c0-0.49-0.131-0.725-0.131-0.725l0.523-0.145c0,0,0.125,0.256,0.125,0.538c0.357-0.358,0.717-0.531,1.082-0.531
			c0.373,0,0.703,0.2,0.842,0.504c0.055,0.124,0.082,0.262,0.082,0.399v1.49c0,0.559,0.021,0.703,0.275,0.842L151.969,32.346z"/>
		<path fill="#FFFFFF" d="M154.979,33.67l-0.33-0.228c0.199-0.289,0.316-0.421,0.316-0.759c0-0.394-0.289-0.497-0.613-0.538
			c-0.869-0.117-1.316-0.565-1.316-1.545c0-0.779,0.221-1.193,0.516-1.49c0.27-0.269,0.566-0.399,0.932-0.399
			c0.436,0,0.689,0.165,0.938,0.372l-0.295,0.373c-0.242-0.2-0.395-0.275-0.656-0.275c-0.27,0-0.523,0.15-0.648,0.386
			c-0.131,0.241-0.193,0.62-0.193,1.034c0,0.766,0.373,0.952,0.842,1.049c0.613,0.124,1.021,0.221,1.021,0.91
			C155.491,33.015,155.256,33.298,154.979,33.67z"/>
	</g>
</g>
</svg>
